<svg xmlns="http://www.w3.org/2000/svg" viewBox="0 0 256 256">
  <rect width="256" height="256" fill="#2D3A2E"/>
  <path d="M128 60 Q140 80 145 100 Q150 120 148 140 Q146 160 140 175 L128 200 L116 175 Q110 160 108 140 Q106 120 111 100 Q116 80 128 60 Z" fill="none" stroke="#C5A572" stroke-width="2"/>
  <path d="M128 60 Q115 75 105 95 Q95 115 92 135" fill="none" stroke="#C5A572" stroke-width="1.5"/>
  <path d="M128 60 Q141 75 151 95 Q161 115 164 135" fill="none" stroke="#C5A572" stroke-width="1.5"/>
  <g fill="none" stroke="#C5A572" stroke-width="2.5" stroke-linecap="round" stroke-linejoin="round">
    <path d="M85 110 L85 150 Q85 165 95 165 Q105 165 105 150 L105 130 L95 130"/>
    <path d="M105 135 Q115 135 115 145 Q115 155 105 155"/>
    <path d="M150 125 Q150 110 165 110 Q180 110 180 125 L180 150 Q180 165 165 165 Q150 165 150 150 Z"/>
    <line x1="165" y1="110" x2="165" y2="165"/>
  </g>
</svg>