<?xml version="1.0" encoding="UTF-8" standalone="no"?>
<!-- Created with Inkscape (http://www.inkscape.org/) -->

<svg
   width="182.603mm"
   height="232.51115mm"
   viewBox="0 0 182.603 232.51115"
   version="1.1"
   id="svg1"
   xml:space="preserve"
   xmlns="http://www.w3.org/2000/svg"
   xmlns:svg="http://www.w3.org/2000/svg"><defs
     id="defs1" /><g
     id="layer1"
     transform="translate(-13.606344,-22.013326)"><path
       style="fill:#897c5e;fill-opacity:1;stroke:none"
       d="m 103.98125,22.101491 c -2.8393,0.621247 -5.723777,3.240209 -8.202082,4.727166 -5.166335,3.099746 -10.450105,5.932293 -15.875,8.557101 -13.507566,6.535583 -28.396636,10.75309 -43.127084,13.409856 -5.298005,0.955546 -10.750176,2.075713 -16.139584,2.271826 -2.3316,0.08485 -5.317674,0.112477 -6.347553,2.643184 -1.362781,3.34873 -0.26703,9.093228 -0.26703,12.699791 v 29.36875 c 0,15.927905 -0.900664,32.102775 1.436023,47.889585 4.672406,31.56702 20.934632,61.08277 45.130644,81.86853 10.208995,8.77012 21.165149,16.52592 32.808334,23.28334 3.168944,1.83918 8.581602,6.43218 12.435422,5.60526 3.51394,-0.75399 7.26087,-3.57877 10.31875,-5.39988 6.84764,-4.07813 13.64199,-8.2365 20.10833,-12.90538 29.59624,-21.3694 50.78844,-52.89511 57.3023,-89.01229 2.69604,-14.94857 2.22895,-30.10887 2.22895,-45.24375 V 66.410415 c 0,-3.519117 1.32936,-10.524245 -0.75517,-13.482123 -0.99115,-1.406423 -2.44646,-1.498633 -4.00733,-1.711201 -3.24772,-0.442302 -6.53516,-0.610089 -9.78958,-1.058333 -12.36335,-1.702884 -24.4828,-4.680948 -36.24792,-8.846198 -10.17806,-3.603398 -19.99171,-8.274108 -29.36875,-13.60563 -2.98168,-1.69531 -8.04412,-6.392601 -11.64167,-5.605439 m -82.55,36.371424 c 19.075661,-1.505593 38.788517,-6.250313 56.356251,-13.870617 6.459038,-2.801719 12.697029,-5.991414 18.785417,-9.525016 2.224073,-1.290813 5.638042,-4.417528 8.202082,-4.66958 1.70478,-0.167593 4.39591,2.234166 5.82084,3.088636 4.54109,2.723122 9.23411,5.310109 14.02291,7.572051 13.55179,6.401063 27.90408,11.233278 42.59792,14.228508 4.80777,0.980028 9.67554,1.82153 14.55208,2.368993 1.46784,0.164783 5.04895,-0.08975 6.19036,0.814372 0.74603,0.590953 0.42423,2.33395 0.42423,3.167653 v 8.73125 35.983335 c 0,13.0436 0.36023,26.00461 -1.96437,38.89375 -6.13755,34.03063 -24.99839,62.78649 -52.5398,83.44255 -6.0855,4.56413 -12.52067,8.65157 -19.05,12.54812 -2.80845,1.67601 -6.09021,4.20607 -9.26042,5.07466 -1.21496,0.33287 -2.42808,-0.59367 -3.43958,-1.16511 -2.483506,-1.40303 -4.961827,-2.81202 -7.408335,-4.27989 C 84.169492,234.54592 74.110707,227.49551 64.822918,219.4141 41.544396,199.15918 26.209318,170.32476 22.300537,139.7 20.937571,129.02136 21.43125,118.17373 21.43125,107.42083 V 58.472915 M 81.756251,174.09583 c 5.886156,1.68272 11.202595,3.4387 17.462501,3.16459 5.107068,-0.22363 10.229028,-1.1062 15.081248,-2.72361 27.2985,-9.09949 38.14386,-36.28054 39.97576,-62.88264 0.51286,-7.44756 0.27703,-14.77772 0.24112,-22.225005 -0.0123,-2.548229 0.54801,-7.17411 -1.16939,-9.232657 -2.19463,-2.630589 -6.86612,-0.788695 -9.67874,-0.313789 -9.30729,1.571529 -18.78747,3.167943 -27.78125,6.106863 -9.43901,3.084405 -18.361168,6.826731 -26.193749,13.083407 -14.456272,11.547711 -22.404979,29.607061 -21.142984,48.035341 0.356511,5.20597 1.715835,10.57194 3.792767,15.34584 0.834865,1.91897 3.467215,4.86574 3.538803,6.87916 0.06136,1.72616 -2.02516,4.28714 -2.792005,5.82084 -2.375082,4.75016 -4.636878,9.58593 -6.527614,14.55208 -0.956499,2.51231 -2.960349,6.38979 0.377884,8.08123 1.811,0.91761 3.973409,-0.0224 4.885199,-1.73225 2.080873,-3.90218 3.395319,-8.39604 5.249615,-12.4344 1.44623,-3.14964 3.654687,-6.2247 4.680835,-9.525 M 147.37292,86.783332 c -0.35696,5.543412 0.49774,11.106105 0.25417,16.668748 -1.04166,23.78857 -6.20623,50.03503 -29.62292,61.71324 -4.53974,2.26403 -9.50848,3.86978 -14.55208,4.47363 -5.97414,0.71525 -12.093647,0.27999 -17.727089,-1.89312 1.250296,-3.94967 4.589869,-7.69601 6.878957,-11.1125 6.401903,-9.55487 13.832992,-18.59213 21.960632,-26.72291 3.26709,-3.26836 6.47953,-6.55548 9.78958,-9.78571 1.31436,-1.28266 3.4,-2.677 3.33403,-4.76638 -0.0802,-2.54031 -3.10904,-3.87263 -5.18611,-2.79324 -3.67872,1.91171 -6.88403,6.23769 -9.78959,9.14324 -11.88991,11.88991 -24.058091,25.53535 -32.014582,40.48125 h -0.529167 c -2.182473,-5.24201 -4.080985,-10.13257 -4.474242,-15.875 -1.201679,-17.54754 7.670607,-34.88991 22.465909,-44.42632 9.001602,-5.80204 19.341152,-8.794234 29.633332,-11.367285 6.21015,-1.552538 13.17316,-3.462628 19.57917,-3.737643 z"
       id="path1" /></g></svg>
