<?xml version="1.0" encoding="UTF-8" standalone="no"?>
<!-- Created with Inkscape (http://www.inkscape.org/) -->

<svg
   width="170.27165mm"
   height="229.96254mm"
   viewBox="0 0 170.27165 229.96254"
   version="1.1"
   id="svg1"
   xml:space="preserve"
   inkscape:export-filename="3.svg"
   inkscape:export-xdpi="96"
   inkscape:export-ydpi="96"
   xmlns:inkscape="http://www.inkscape.org/namespaces/inkscape"
   xmlns:sodipodi="http://sodipodi.sourceforge.net/DTD/sodipodi-0.dtd"
   xmlns="http://www.w3.org/2000/svg"
   xmlns:svg="http://www.w3.org/2000/svg"><sodipodi:namedview
     id="namedview1"
     pagecolor="#000000"
     bordercolor="#000000"
     borderopacity="0.25"
     inkscape:showpageshadow="2"
     inkscape:pageopacity="0.0"
     inkscape:pagecheckerboard="0"
     inkscape:deskcolor="#d1d1d1"
     inkscape:document-units="mm"><inkscape:page
       x="0"
       y="0"
       width="170.27165"
       height="229.96254"
       id="page2"
       margin="0"
       bleed="0" /></sodipodi:namedview><defs
     id="defs1" /><g
     inkscape:label="Réteg 1"
     inkscape:groupmode="layer"
     id="layer1"
     transform="translate(100.73462,-149.00396)"><path
       style="fill:#897c5e;fill-opacity:1;stroke:none"
       d="m -64.453775,351.72822 c 2.12657,4.49531 5.62814,8.47509 8.25292,12.7 2.34046,3.76724 4.89762,7.42125 7.3575,11.1125 1.14081,1.71188 2.19076,3.48861 4.49791,3.42408 3.91889,-0.10962 5.44888,-8.10161 6.72605,-11.097 5.21512,-12.23124 10.21678,-24.64391 15.0198,-37.04167 1.57532,-4.06628 3.19721,-8.12166 4.81823,-12.17083 0.36001,-0.89928 1.04936,-3.80053 2.27551,-3.80053 1.16138,0 1.67709,2.43681 2.01092,3.27136 1.41183,3.52947 2.76338,7.09101 4.26476,10.58334 5.48053,12.74819 10.34759,25.77643 15.5798,38.62917 1.27592,3.13427 3.05149,11.861 7.24869,11.61288 3.0173,-0.17838 4.70252,-4.37919 6.1736,-6.5858 3.16617,-4.74926 6.270162,-9.53753 9.436813,-14.2875 1.147685,-1.72154 2.40943,-4.70073 4.105741,-5.90189 1.493255,-1.05738 6.653486,1.26385 8.329676,1.74552 6.240252,1.79319 12.507715,3.58709 18.785417,5.24532 2.111789,0.55781 5.265021,2.08418 7.404247,0.98035 1.968727,-1.01585 1.964658,-3.1772 1.312711,-4.97972 -1.610044,-4.45144 -3.466649,-8.87247 -5.316972,-13.22917 -5.418759,-12.75879 -10.587322,-25.70017 -15.586937,-38.62916 -1.37217,-3.5484 -2.857206,-7.07476 -4.3295,-10.58334 -0.645051,-1.53718 -1.885769,-3.495 -1.970696,-5.17938 -0.06831,-1.35478 0.839435,-3.047 1.212264,-4.34562 0.726393,-2.53012 1.07038,-5.32248 2.809777,-7.40731 2.079718,-2.49274 5.270011,-3.95808 7.850522,-5.8631 3.110049,-2.29593 5.734017,-5.42606 7.325861,-8.95459 2.573713,-5.70496 2.481163,-12.29642 0.906841,-18.25625 -0.940592,-3.56078 -2.718649,-6.82691 -2.675434,-10.58333 0.04081,-3.54739 1.815554,-6.9586 2.797116,-10.31875 1.138852,-3.89858 1.399931,-7.89191 0.830489,-11.90625 -0.825628,-5.82045 -4.107728,-10.76052 -8.655706,-14.3759 -2.89191,-2.29891 -6.631879,-3.98982 -8.827207,-7.05535 -2.137693,-2.98504 -2.495956,-7.41678 -3.699467,-10.84792 -1.948767,-5.5558 -5.982323,-10.3114 -11.285827,-12.89598 -3.884888,-1.89325 -7.898259,-2.44985 -12.170829,-2.44985 -3.24491,0 -7.0055,0.54777 -10.05417,-0.76171 -3.61251,-1.55165 -6.16695,-5.27743 -9.26042004,-7.64249 -5.02358996,-3.84073 -10.96083996,-5.23838 -17.19790996,-4.80129 -4.87778,0.34184 -9.63047,2.98234 -13.22917,6.13748 -2.61313,2.29104 -5.06663,5.48994 -8.46667,6.60518 -3.8168,1.25196 -8.46507,0.29911 -12.43542,0.47323 -5.42056,0.23771 -11.27426,2.73483 -15.07083,6.60806 -2.70503,2.75963 -4.77943,6.3568 -5.90516,10.05029 -0.91076,2.98819 -1.23207,6.62876 -2.99493,9.26042 -2.30811,3.44562 -6.52589,5.17258 -9.63116,7.78907 -4.8183,4.05988 -7.64427,9.24939 -8.39113,15.49426 -0.47619,3.98168 0.16595,8.12912 1.42377,11.90625 1.01798,3.05692 2.73448,6.22179 2.57581,9.525 -0.16234,3.37953 -1.96815,6.58768 -2.9045,9.78958 -1.47232,5.03466 -1.73356,10.57103 -0.14188,15.61042 1.42867,4.52332 4.4746,8.54568 8.23168,11.40383 2.8075,2.13577 6.36261,3.67766 8.48565,6.58805 1.36502,1.87125 1.71444,4.1543 2.26346,6.34979 0.38531,1.54083 1.53639,3.71398 1.2292,5.29166 -1.06492,5.46942 -4.50825,11.22274 -6.58089,16.40417 -4.84291,12.10684 -9.86758,24.14045 -14.71071,36.24792 -1.73109,4.32761 -3.50776,8.63644 -5.23879,12.96458 -0.662035,1.65526 -1.723545,3.83559 -0.597365,5.54462 1.908525,2.89624 6.506235,0.62156 9.064025,-0.0219 8.77805,-2.2081 18.27517,-4.14119 26.72292,-7.37484 m 47.88959,-195.98067 c 10.46362,-1.2507 14.64171,9.37477 23.28333,12.22248 7.71308,2.54172 16.23861,-1.17304 23.283123,3.9712 7.001591,5.1129 5.729124,13.96252 10.14951,20.50786 4.394515,6.50703 12.98871,7.83566 15.859691,15.875 2.992824,8.38053 -2.881946,14.50511 -3.244408,22.48958 -0.389204,8.57377 5.744336,15.85913 3.492858,24.60625 -2.257824,8.77182 -10.530203,10.03978 -15.537117,16.40417 -4.597087,5.84344 -3.470831,14.06526 -8.878657,19.57529 -7.47379,7.61506 -16.98585,2.15258 -25.65417,5.41824 -7.28221,2.74347 -11.27709,10.37915 -19.57916,11.20927 -5.12823,0.51276 -9.69638,-1.07792 -13.75834,-4.16147 -3.39583,-2.57788 -6.12907,-5.83135 -10.31875,-7.16294 -7.72856,-2.45632 -16.1158,1.5969 -23.28333,-3.45857 -7.38818,-5.2111 -5.89301,-13.8561 -10.45636,-20.62607 -4.29731,-6.37531 -12.73015,-7.74979 -15.59347,-15.61042 -3.17224,-8.70874 2.655,-15.21068 3.02066,-23.54791 0.36475,-8.31645 -5.8898,-15.28037 -3.65251,-23.8125 2.24546,-8.56326 10.70403,-10.00923 15.71004,-16.1398 4.82368,-5.90726 3.61306,-14.42102 9.14324,-20.09771 7.17919,-7.36938 17.1435,-2.35815 25.6409,-5.58401 7.80679,-2.96367 11.39505,-11.00485 20.37292,-12.07794 m 1.32291,29.67945 c -13.70738,1.34057 -26.015,4.79506 -35.67383,15.48876 -17.33518,19.19251 -16.98093,50.06437 2.60091,67.68821 5.15993,4.64398 11.39958,8.28084 17.99167,10.45104 6.47604,2.13199 13.35902,2.64033 20.10834,1.98459 23.4577,-2.2791 41.829791,-22.38152 42.85208,-45.72801 0.929433,-21.22605 -13.51633,-41.71293 -33.85625,-47.81548 -4.32169,-1.29662 -9.47672,-2.51372 -14.02292,-2.06911 m -1.5875,6.56847 c 5.27547,-0.62214 11.53063,0.97515 16.40416996,2.88856 4.84815004,1.90346 9.44408004,4.54092 13.22917004,8.15881 20.086787,19.19947 16.460668,52.68264 -7.9375,66.47411 -4.45685004,2.5193 -9.69817,4.38825 -14.81667,4.90826 -12.67247,1.28743 -25.34799,-2.39575 -34.66021,-11.34279 -17.67486,-16.98173 -15.99859,-46.49827 2.91021,-61.78021 7.28985,-5.89159 15.7725,-8.23378 24.87083,-9.30674 m -51.59375,103.11195 c 4.16129,4.15854 9.10411,6.973 15.08125,7.38466 4.34702,0.29937 9.57453,-0.96134 13.75833,0.34666 3.32918,1.04079 5.81548,4.06351 8.46667,6.17258 2.53119,2.01364 5.31042,3.2483 8.20208,4.61694 -4.33203,11.16905 -9.05894,22.18776 -13.44005,33.3375 -2.75305,7.00635 -5.06206,14.88959 -8.78495,21.43125 h -0.26458 c -3.94946,-5.51426 -7.52765,-11.29148 -11.28889,-16.93334 -1.32484,-1.98726 -2.84731,-5.58517 -5.11915,-6.5909 -2.30861,-1.022 -5.91694,0.8035 -8.19821,1.39744 -7.25664,1.88931 -14.4816,3.93996 -21.69583,5.98721 l 5.13202,-13.22916 11.16639,-27.51667 4.44484,-11.1125 2.54008,-5.29167 m 106.09792,0 23.01875,56.88542 c -7.009343,-0.57251 -14.66054,-3.77897 -21.43125,-5.70937 -2.391004,-0.68168 -6.327247,-2.54574 -8.727375,-1.31352 -1.927951,0.98981 -2.99867,3.70105 -4.149214,5.43539 -2.812571,4.23968 -5.644291,8.46673 -8.466471,12.7 -1.12078,1.68117 -2.25673,4.3067 -4.05694,5.29167 -1.46248,-5.11579 -3.9887,-10.13666 -5.96661,-15.08125 -3.41785,-8.54431 -6.61313,-17.21121 -10.24729,-25.66459 -1.4632,-3.40353 -2.78289,-6.87794 -4.15902,-10.31875 -0.36341,-0.90866 -1.59087,-2.87033 -1.02628,-3.83381 0.86809,-1.48138 4.8412,-2.39195 6.31795,-3.4263 3.09899,-2.17061 5.88523,-5.888 9.525,-7.09353 5.67921,-1.88102 12.343,0.14382 18.256249,-1.3558 4.637298,-1.17602 7.071759,-4.63118 11.112501,-6.51556 z"
       id="path2" /></g></svg>
