<?xml version="1.0" encoding="UTF-8" standalone="no"?>
<!-- Created with Inkscape (http://www.inkscape.org/) -->

<svg
   width="134.26987mm"
   height="154.16068mm"
   viewBox="0 0 134.26987 154.16068"
   version="1.1"
   id="svg1"
   xml:space="preserve"
   inkscape:export-filename="3.svg"
   inkscape:export-xdpi="96"
   inkscape:export-ydpi="96"
   xmlns:inkscape="http://www.inkscape.org/namespaces/inkscape"
   xmlns:sodipodi="http://sodipodi.sourceforge.net/DTD/sodipodi-0.dtd"
   xmlns="http://www.w3.org/2000/svg"
   xmlns:svg="http://www.w3.org/2000/svg"><sodipodi:namedview
     id="namedview1"
     pagecolor="#000000"
     bordercolor="#000000"
     borderopacity="0.25"
     inkscape:showpageshadow="2"
     inkscape:pageopacity="0.0"
     inkscape:pagecheckerboard="0"
     inkscape:deskcolor="#d1d1d1"
     inkscape:document-units="mm"><inkscape:page
       x="0"
       y="0"
       width="134.26987"
       height="154.16068"
       id="page2"
       margin="0"
       bleed="0" /></sodipodi:namedview><defs
     id="defs1" /><g
     inkscape:label="Réteg 1"
     inkscape:groupmode="layer"
     id="layer1"
     transform="translate(71.259066,-175.31421)"><path
       style="fill:#897c5e;fill-opacity:1;stroke:none"
       d="m -48.418753,298.71458 c 1.90372,-3.57463 2.24325,-7.83621 4.048978,-11.37708 0.97599,-1.91384 2.891296,-3.56475 4.18659,-5.29167 2.590798,-3.4541 4.973025,-7.0476 7.028601,-10.84791 7.158591,-13.23474 8.422354,-28.53281 5.790215,-43.12709 -1.123898,-6.23161 -2.75219,-12.38233 -4.286818,-18.52083 -0.240183,-0.96075 -0.69064,-5.64815 -2.199349,-5.20022 -1.206823,0.35831 -2.072452,2.85209 -2.597242,3.8773 -1.825276,3.56574 -3.806397,7.09384 -5.773275,10.58334 -7.301048,12.95298 -11.411432,28.52686 -9.561949,43.39166 0.729607,5.86405 2.298617,11.48336 3.727639,17.19792 0.617728,2.47026 2.119913,5.65957 1.483792,8.20208 -1.070001,4.27668 -2.590176,9.88658 -5.191018,13.49274 -1.404348,1.94718 -3.688067,3.33715 -5.387414,5.02829 -3.492576,3.47576 -6.714569,7.36063 -9.185292,11.64147 -1.571618,2.72303 -3.034707,5.54584 -4.202707,8.46667 -0.304391,0.76119 -1.169616,2.22583 -0.428923,2.96697 0.851143,0.85163 1.579426,-0.47565 1.856573,-1.11897 1.04195,-2.41864 2.052507,-4.81868 3.310764,-7.13967 5.407624,-9.97492 14.295082,-18.59321 24.260002,-23.99541 6.512296,-3.53046 15.283095,-7.7823 22.754167,-8.49567 1.874837,-0.17902 3.976534,0.58124 5.820834,0.89053 4.0289849,0.67565 8.1046083,1.27075 12.17083306,1.65773 12.67802194,1.20654 26.17151394,-1.10367 37.30625094,-7.47653 8.186241,-4.68534 14.711247,-11.41904 20.915358,-18.40773 1.478511,-1.66548 2.965662,-3.33103 4.408904,-5.02708 0.406564,-0.47778 1.484664,-1.50371 1.087724,-2.22161 -0.369422,-0.66812 -2.450981,-0.61872 -3.128652,-0.66514 -3.073085,-0.21045 -6.193146,0.22333 -9.260417,-0.0686 -14.661606,-1.39533 -31.294215,1.34102 -44.1854178,8.62386 -5.8404059,3.29952 -11.1678101,7.34251 -16.1395836,11.83888 -3.0233786,2.73428 -5.9958226,6.65544 -9.5250006,8.70368 -2.021226,1.17307 -4.903706,1.55567 -7.14375,2.21161 -2.497441,0.73132 -4.885554,1.93572 -7.408333,2.53355 6.758308,-5.88566 13.601641,-11.40888 19.465866,-18.25625 2.576022,-3.00791 5.052825,-6.08707 7.4226255,-9.26042 1.2070969,-1.61639 2.2798673,-3.84786 3.8519775,-5.12283 1.5180275,-1.23111 3.75786173,-1.77192 5.5074481,-2.61848 4.0526274,-1.96091 8.0499609,-4.07451 11.9062499,-6.40062 12.137228,-7.32118 22.789614,-18.02242 29.035567,-30.83724 5.03477,-10.32983 6.596642,-21.27499 7.930556,-32.54375 0.332958,-2.81276 0.467123,-5.65046 0.79375,-8.46666 0.09134,-0.78746 0.243364,-2.3876 -0.998308,-2.20711 -1.630843,0.23707 -3.440714,2.17883 -4.746981,3.11233 -3.585973,2.56267 -7.258762,5.00226 -10.847917,7.56144 -16.630364,11.858 -28.9343613,27.63627 -35.2769652,47.09584 -1.6870418,5.17596 -2.8045446,10.52511 -3.7690853,15.875 -0.4611798,2.55792 -0.3460544,5.84404 -1.468079,8.20208 -2.4513362,5.15177 -7.2667075,10.06659 -11.0357285,14.2875 -9.368663,10.49195 -20.321725,19.84598 -32.32306,27.25208 M 50.006249,178.32917 c -0.21822,26.36523 -10.197779,50.66625 -32.014584,66.25731 -4.084489,2.91892 -8.4790368,5.38399 -12.9645835,7.62676 -1.8464313,0.92321 -3.7750603,2.21584 -5.82083344,2.58051 3.33782924,-6.26997 7.91353524,-12.17154 11.98035794,-17.99167 6.957036,-9.9564 13.941817,-19.89715 20.834726,-29.89791 4.078224,-5.91699 8.848637,-11.99393 11.8995,-18.52084 -9.104903,10.45487 -16.852428,22.5172 -24.796726,33.86667 -7.020712,10.03001 -15.0134899,19.99219 -20.9761913,30.69167 h -0.2645833 c 0.2015381,-4.69469 1.54454397,-9.48382 2.67930999,-14.02292 C 7.1649194,212.50964 26.489499,191.42205 50.006249,178.32917 m -5.997228,9.70139 0.08821,0.17638 -0.08821,-0.17638 m -77.87569,20.19652 c 1.004929,7.46289 3.66155,14.76887 4.911942,22.225 2.148641,12.81245 0.60681,25.1698 -4.684114,37.04167 -1.712137,3.84174 -3.915329,7.39441 -6.306713,10.84792 -1.044316,1.50814 -2.105136,3.55443 -3.710699,4.49791 2.258753,-8.7302 2.880816,-18.06419 4.043269,-26.9875 1.647623,-12.64755 3.4201,-25.3885 4.423398,-38.1 h -0.264583 c -4.347014,21.07183 -7.078654,42.6907 -9.789584,64.02917 h -0.264583 c -1.649827,-7.99318 -4.176942,-15.60766 -4.738818,-23.8125 -0.873614,-12.75694 3.276108,-25.25108 8.906821,-36.5125 2.036027,-4.07206 4.199429,-10.05441 7.473664,-13.22917 m 93.662502,50.8 c -1.94037,4.2359 -6.781305,8.36881 -10.054167,11.64167 -4.960534,4.96053 -10.632863,9.47831 -16.933334,12.62854 -14.735067,7.36753 -31.3467306,6.74298 -47.095834,3.77563 v -0.26459 c 5.7744537,-0.85279 11.6042982,-3.6807 17.1979168,-5.36577 C 19.355632,276.48845 34.982973,270.3749 50.799999,263.78958 V 263.525 l -47.6250009,15.88175 -17.7270841,5.5495 c 2.231211,-3.10212 5.8394051,-5.7074 8.7312506,-8.20208 7.4813426,-6.45386 16.1385824,-11.78759 25.6645834,-14.62598 12.950373,-3.85875 26.602302,-3.10111 39.952085,-3.10111 m -93.662502,32.01459 -0.264584,0.26458 z"
       id="path2" /></g></svg>
