<?xml version="1.0" encoding="UTF-8" standalone="no"?>
<!-- Created with Inkscape (http://www.inkscape.org/) -->

<svg
   width="164.70737mm"
   height="174.31081mm"
   viewBox="0 0 164.70737 174.31081"
   version="1.1"
   id="svg1"
   xml:space="preserve"
   inkscape:export-filename="5.svg"
   inkscape:export-xdpi="96"
   inkscape:export-ydpi="96"
   xmlns:inkscape="http://www.inkscape.org/namespaces/inkscape"
   xmlns:sodipodi="http://sodipodi.sourceforge.net/DTD/sodipodi-0.dtd"
   xmlns="http://www.w3.org/2000/svg"
   xmlns:svg="http://www.w3.org/2000/svg"><sodipodi:namedview
     id="namedview1"
     pagecolor="#000000"
     bordercolor="#000000"
     borderopacity="0.25"
     inkscape:showpageshadow="2"
     inkscape:pageopacity="0.0"
     inkscape:pagecheckerboard="0"
     inkscape:deskcolor="#d1d1d1"
     inkscape:document-units="mm"><inkscape:page
       x="0"
       y="0"
       width="164.70737"
       height="174.31081"
       id="page2"
       margin="0"
       bleed="0" /></sodipodi:namedview><defs
     id="defs1" /><g
     inkscape:label="Réteg 1"
     inkscape:groupmode="layer"
     id="layer1"
     transform="translate(89.876652,-176.62199)"><path
       style="fill:#897c5e;fill-opacity:1;stroke:none"
       d="m -9.2500519,322.76812 h -0.2645833 c -1.0873528,-2.28839 -3.2852648,-3.66513 -4.4609678,-5.82083 -2.22677,-4.08286 -2.966954,-9.03756 -5.291861,-13.22917 -6.495954,-11.71166 -17.284685,-21.07651 -29.405505,-26.64125 -9.720765,-4.46288 -20.073897,-6.16708 -30.691668,-6.16708 -2.248183,0 -8.509501,-0.69134 -10.082136,1.17307 -1.523308,1.80593 1.430355,7.04816 2.218945,8.88109 3.654146,8.4934 8.903244,16.73322 15.800692,22.97383 9.617533,8.7017 21.625311,15.50357 34.660417,17.1673 5.131906,0.65501 10.216754,0.762 15.345834,0.0411 1.873303,-0.26333 4.750598,-1.52812 6.346124,-0.18701 6.8147004,5.72801 5.8247091,15.33531 5.8247091,23.24025 0,1.44565 -0.7863861,7.49234 2.1052333,6.65399 2.3638577,-0.68533 1.3343501,-7.12568 1.3343501,-9.03524 0,-6.69991 -0.5507093,-17.41946 6.61458344,-21.22648 1.59969246,-0.84995 5.36453056,0.50413 7.14375016,0.74128 4.6533819,0.62026 9.3864589,0.42086 14.0229169,-0.26541 19.085205,-2.82489 35.86816,-15.0894 45.822931,-31.37231 2.384835,-3.90084 4.320715,-8.13214 5.852275,-12.43541 0.452572,-1.27162 1.582025,-3.38394 1.041183,-4.73373 -0.709873,-1.77164 -4.348927,-1.30227 -5.885138,-1.50399 -6.397381,-0.83998 -13.270573,0.0841 -19.579167,1.14531 -17.155817,2.88582 -33.765252,13.69308 -43.1127925,28.37574 -2.1228841,3.33452 -3.9303642,6.86993 -5.29187673,10.58333 -0.69317476,1.89059 -0.96397541,4.30287 -1.94639287,6.04049 -1.1708103,2.07084 -3.3499732,3.35413 -4.4176891,5.60118 -0.7791675,-2.63595 -0.2645833,-5.98781 -0.2645833,-8.73125 v -17.4625 c 0,-2.51738 -0.8619468,-6.99268 0.2719311,-9.26042 0.812192,-1.6244 2.7029843,-2.94728 3.9575266,-4.23333 2.22137604,-2.27715 4.2750782,-4.7906 6.0825422,-7.40833 C 12.344108,264.3139 17.079285,250.16569 16.126274,236.24937 14.996208,219.7475 9.317016,203.79542 1.296333,189.41812 c -1.8541666,-3.32365 -3.8268014,-6.55795 -5.8347215,-9.78959 -0.6388499,-1.02818 -1.4753299,-2.87115 -2.8603875,-2.99983 -1.4286273,-0.13271 -2.3377611,1.73367 -2.960446,2.73525 -1.849726,2.97529 -3.736578,5.92259 -5.424572,8.99584 -7.130799,12.98267 -12.978859,26.98958 -14.822174,41.80416 -1.877679,15.09078 1.290603,30.22251 9.463748,43.12709 2.149336,3.39357 4.682595,6.58858 7.417926,9.525 1.313566,1.41013 3.634371,2.91755 4.3145942,4.7625 1.0518092,2.85276 0.1596479,7.54356 0.1596479,10.58333 v 24.60625 m 1.8520834,-141.2875 c 3.6597573,4.79628 6.387191,10.49211 9.0613656,15.875 10.4502989,21.03563 15.9948569,46.06195 5.0268735,67.99792 -2.9611242,5.92224 -6.98126002,13.04528 -12.5007391,16.93333 v -39.15833 c 0,-3.06847 0.1800116,-6.19825 -0.011627,-9.26042 -0.060865,-0.9726 -0.5870927,-2.47677 -1.8373879,-2.33471 -1.2369239,0.14054 -1.5550569,1.59756 -1.5864826,2.59929 -0.096651,3.08037 -0.00409,6.17842 -0.00409,9.26042 v 39.15833 h -0.2645833 c -4.7007627,-6.16958 -9.5851707,-11.33787 -12.8829187,-18.52083 -9.10894,-19.84057 -5.298126,-41.4493 2.981876,-60.85417 2.174802,-5.09684 4.734352,-10.00648 7.479986,-14.81666 1.294607,-2.26807 2.6023279,-5.10528 4.5377234,-6.87917 M -18.245885,314.56604 c -3.146046,-1.15184 -6.122866,-3.46218 -8.995834,-5.18593 L -44.175053,299.2202 c -2.110901,-1.26665 -4.203724,-2.57222 -6.35,-3.77827 -0.790189,-0.44403 -1.715512,-1.10093 -2.60664,-0.51161 -1.012632,0.66968 -0.811376,1.82437 0,2.5411 1.773196,1.5664 4.274578,2.63397 6.310807,3.8287 8.930721,5.24005 18.136555,10.38857 26.722917,16.17633 v 0.26459 c -7.682993,0.32992 -14.639223,0.73937 -22.225,-1.15755 -15.27171,-3.81889 -28.780092,-14.46262 -37.054934,-27.68204 -2.698325,-4.31068 -5.446639,-9.29644 -6.601317,-14.2875 3.536234,-1.04528 7.751433,-0.35727 11.377084,-0.26846 17.813835,0.43636 35.407448,9.01224 46.765105,22.75805 3.930864,4.75739 8.663408,11.18052 9.591146,17.4625 M 70.9187,274.61395 c -1.096041,4.73752 -3.59844,9.35714 -6.085417,13.49375 -9.085218,15.11152 -24.64609,26.30825 -42.068751,29.47083 -6.002331,1.08955 -11.723655,0.42031 -17.7270836,0.16251 v -0.26459 c 8.5813396,-5.67836 17.7245156,-10.51893 26.4583336,-15.95849 2.08051,-1.29578 4.376623,-2.38037 6.335305,-3.85993 0.947568,-0.7158 1.463977,-1.94066 0.246609,-2.72771 -0.906404,-0.58601 -1.821691,0.0646 -2.613164,0.53304 -2.124111,1.25709 -4.233495,2.53983 -6.35,3.80972 -5.548402,3.32897 -11.150708,6.57062 -16.66875,9.95126 -2.8833514,1.7665 -6.0373256,4.31463 -9.260417,5.3417 1.5728691,-6.79528 6.0101791,-13.38391 10.570059,-18.52084 10.081636,-11.35743 23.447713,-18.50675 38.377859,-21.0115 5.829699,-0.97803 12.972932,-1.80356 18.785417,-0.41975 z"
       id="path2" /></g></svg>
