<?xml version="1.0" encoding="UTF-8" standalone="no"?>
<!-- Created with Inkscape (http://www.inkscape.org/) -->

<svg
   width="221.78285mm"
   height="251.37871mm"
   viewBox="0 0 221.78285 251.37871"
   version="1.1"
   id="svg1"
   xml:space="preserve"
   inkscape:export-filename="5.svg"
   inkscape:export-xdpi="96"
   inkscape:export-ydpi="96"
   xmlns:inkscape="http://www.inkscape.org/namespaces/inkscape"
   xmlns:sodipodi="http://sodipodi.sourceforge.net/DTD/sodipodi-0.dtd"
   xmlns="http://www.w3.org/2000/svg"
   xmlns:svg="http://www.w3.org/2000/svg"><sodipodi:namedview
     id="namedview1"
     pagecolor="#000000"
     bordercolor="#000000"
     borderopacity="0.25"
     inkscape:showpageshadow="2"
     inkscape:pageopacity="0.0"
     inkscape:pagecheckerboard="0"
     inkscape:deskcolor="#d1d1d1"
     inkscape:document-units="mm"><inkscape:page
       x="6.5925362e-21"
       y="0"
       width="221.78284"
       height="251.37871"
       id="page2"
       margin="0"
       bleed="0" /></sodipodi:namedview><defs
     id="defs1" /><g
     inkscape:label="Réteg 1"
     inkscape:groupmode="layer"
     id="layer1"
     transform="translate(113.14159,-131.3376)"><path
       style="fill:#897c5e;fill-opacity:1;stroke:none"
       d="m 12.170826,258.49792 c 3.722012,-9.59617 9.322881,-18.3282 12.781456,-28.04584 6.206792,-17.4394 7.185414,-36.29446 4.260496,-54.50416 -1.501072,-9.34524 -3.279242,-18.94455 -6.777106,-27.78126 -0.621296,-1.56957 -3.366252,-9.66481 -5.862885,-7.05964 -1.64407,1.71553 -2.612503,4.90638 -3.571456,7.05964 -1.957277,4.39499 -3.9640181,8.75974 -5.751845,13.22917 -8.3492967,20.8725 -13.7544094,42.12495 -9.1007528,64.55834 1.42701237,6.87903 4.2466078,13.41486 6.9898028,19.84375 1.5460458,3.62331 3.9597067,8.09144 3.4755146,12.17083 -1.174137,9.89227 -9.6432907,17.83271 -15.9776749,24.87083 -10.7793327,11.97692 -22.5459597,23.11628 -34.7051337,33.6766 -5.25886,4.56736 -10.587306,9.57219 -16.404167,13.41924 2.174504,-3.05442 3.687719,-6.771 5.519302,-10.05417 4.124441,-7.39322 7.807437,-15.08919 10.050896,-23.28333 4.838085,-17.67089 2.846387,-35.86051 -1.190423,-53.44584 -1.6509,-7.19173 -4.1195,-14.26214 -6.693592,-21.16666 -0.484644,-1.29997 -1.46803,-6.18178 -3.195824,-6.18178 -1.804194,0 -2.854929,4.09027 -3.497558,5.38803 -2.849422,5.7543 -5.344885,11.75923 -7.712933,17.72708 -7.085388,17.85634 -11.583564,37.236 -7.51163,56.35625 1.566539,7.35587 4.209013,14.29008 7.200295,21.16667 1.688277,3.88116 4.399352,8.27317 3.454893,12.7 -0.986269,4.62283 -5.329052,8.02003 -8.858843,10.75543 -7.010723,5.43292 -14.511356,10.21167 -21.43125,15.75577 -6.725446,5.38832 -13.011378,11.65885 -17.614798,18.99713 -0.98436,1.56916 -5.0265,6.3947 -2.20017,7.8493 1.366,0.70302 2.38966,-0.43625 3.03373,-1.50337 1.73053,-2.86726 3.38424,-5.75921 5.37353,-8.46259 7.490586,-10.17942 17.395238,-19.84976 29.663958,-23.76105 15.663668,-4.99361 30.372,0.88473 46.037501,2.78342 16.290996,1.97452 33.5360674,0.45472 48.683334,-6.23751 12.395271,-5.47636 23.180143,-13.72578 34.395834,-21.20362 2.645737,-1.76399 5.29937,-3.51656 7.9375,-5.29186 0.789132,-0.53104 2.355235,-1.39124 1.9415,-2.5854 -0.428801,-1.23765 -3.762238,-1.06037 -4.851916,-1.10815 -4.837399,-0.21215 -9.746224,-0.54046 -14.552084,-1.18104 -21.603107,-2.87949 -42.2693037,-5.86248 -63.235418,2.24509 -7.754372,2.9986 -15.277847,6.78169 -22.225,11.36176 -11.088955,7.31066 -20.839652,15.51202 -34.131251,18.25544 v -0.26459 c 5.324078,-2.65148 10.180266,-7.56239 14.816667,-11.27134 9.739345,-7.79107 19.446318,-15.70356 28.575001,-24.2065 6.362176,-5.92609 12.479455,-13.57278 20.6375,-17.06113 10.65979859,-4.55809 23.916532,-2.01115 35.189584,-2.50478 15.560501,-0.68135 31.700924,-4.41922 44.979168,-12.87352 11.888244,-7.56928 20.445361,-18.41744 30.158622,-28.39106 2.31033,-2.37226 4.3935,-4.9766 6.64194,-7.40833 0.66547,-0.71971 2.25116,-1.9438 1.55159,-3.0909 -0.88758,-1.45539 -5.25931,0.091 -6.60215,0.34216 -6.737268,1.2602 -13.548319,2.359 -20.372919,2.99352 -8.987759,0.83566 -17.977666,1.63433 -26.722917,4.02878 -11.104103,3.04028 -21.453746,8.46298 -30.691667,15.27498 -6.80724,5.01963 -12.951552,10.87838 -19.0500006,16.70979 -4.4954783,4.29864 -9.2374693,9.18537 -15.0812504,11.63125 7.889102,-7.88993 14.7249898,-16.84119 21.523525,-25.66458 4.395727,-5.70495 8.599798,-11.77088 14.195226,-16.38192 8.191377,-6.75028 18.946502,-10.14429 27.78125,-16.03363 17.640235,-11.75918 31.033798,-28.03204 38.946622,-47.7532 5.090226,-12.68641 8.121871,-26.50591 8.149211,-40.21667 0.006,-3.08496 0.4917,-6.17769 0.52815,-9.26042 0.0114,-0.96803 0.28422,-2.87531 -1.072834,-3.05556 -2.206955,-0.29317 -6.232582,3.74505 -7.921981,5.00667 -7.426614,5.54608 -14.350804,11.60594 -20.902084,18.15722 -14.996953,14.99696 -26.606371,32.30202 -34.812718,51.85834 -2.965985,7.06816 -5.52111,14.33937 -7.672916,21.69583 -1.383459,4.72966 -2.25994,9.82681 -4.414007,14.2875 -2.845773,5.8931 -7.823909,11.22669 -12.102444,16.13959 M 98.160411,135.20208 c -1.232386,3.38642 -3.43666,6.65719 -5.217349,9.78958 -3.533166,6.21516 -7.158527,12.37144 -10.802603,18.52084 -8.819698,14.8833 -18.128739,29.4572 -28.39943,43.39167 -8.24785,11.19003 -17.336329,21.71724 -25.695202,32.80833 h -0.264584 c 6.559226,-31.69345 23.015101,-61.37969 45.772918,-84.1375 4.938103,-4.93811 10.15387,-9.50572 15.610417,-13.86408 2.80188,-2.23798 5.778701,-4.90668 8.995833,-6.50884 m 0.264584,2.11667 c 0,28.99749 -9.136329,57.93897 -29.678244,79.08674 -7.888375,8.12103 -17.769006,14.54701 -27.736341,19.80945 -4.133226,2.18222 -8.311815,5.0751 -12.7,6.67256 4.220172,-6.75393 10.098544,-12.78987 15.025504,-19.05 9.14765,-11.62289 18.052484,-23.54123 26.066369,-35.98333 7.125453,-11.06277 13.944707,-22.35775 20.328216,-33.86667 1.982066,-3.57352 3.892027,-7.19213 5.718757,-10.84792 0.951815,-1.90482 1.61048,-4.17306 2.975739,-5.82083 m -80.697918,7.40833 c -0.0075,11.3412 -2.038119,22.84715 -3.13009,34.13125 -1.670296,17.26029 -2.73693,34.54809 -3.49491,51.85834 -0.289016,6.60038 -1.047174,13.23326 -1.047917,19.84375 H 9.7895765 C 6.4692203,242.00209 2.3726841,233.93196 0.37685948,224.89583 -4.10704,204.59483 0.78423126,184.2881 8.3478524,165.36458 c 1.8882246,-4.72419 3.9068356,-9.37582 5.9763956,-14.02292 0.937798,-2.10578 1.753042,-4.98215 3.402829,-6.61458 m 0.79375,0.52917 c 9.303518,22.37551 12.818161,49.22136 7.560633,73.025 -2.565799,11.61672 -7.661887,23.08473 -13.64605,33.3375 h -0.264584 c 0.531024,-25.7279 2.238171,-51.63692 4.717591,-77.25834 0.591969,-6.11711 1.293767,-12.3785 1.366809,-18.52083 0.03624,-3.04755 -0.911379,-7.7785 0.265601,-10.58333 m -72.231252,75.40625 c 0.895286,3.86801 2.668232,7.59169 3.877703,11.37708 2.113195,6.61388 3.902144,13.29861 5.263899,20.10834 3.145108,15.7278 3.150276,32.25184 -1.740826,47.625 -2.705261,8.50287 -7.155208,16.41059 -11.634109,24.07708 h -0.264583 l 3.435707,-68.52708 0.773944,-25.13542 0.288265,-9.525 m -1.058333,1.05833 -1.563818,26.45834 -2.164031,44.18541 -1.563818,29.89792 h -0.264583 c -4.51023,-10.12451 -8.886708,-20.21243 -10.732775,-31.22083 -2.851215,-17.00221 1.566926,-34.48543 7.768663,-50.27084 1.791961,-4.56112 3.752872,-9.03848 5.792864,-13.49375 0.827646,-1.80754 1.458559,-4.01899 2.727498,-5.55625 M 103.71666,241.3 v 0.26458 c -19.642082,14.06601 -44.114135,20.88867 -66.675,28.57581 -12.332677,4.2021 -23.989201,9.55759 -35.9833337,14.55128 3.3080346,-4.68318 8.9178021,-8.72888 13.2291667,-12.51075 11.648159,-10.21761 24.631201,-19.06294 39.687501,-23.35948 16.123709,-4.60114 33.286825,-4.45548 49.741666,-7.52144 m -1.85208,2.38125 c -2.950775,4.18894 -7.098018,7.83266 -10.538425,11.64167 -11.01241,12.19226 -22.826999,22.66962 -38.674078,27.95191 -17.434498,5.81142 -36.607262,5.37354 -54.7687508,5.38559 4.1910557,-3.47259 10.8884345,-5.49124 15.8750008,-7.63311 14.329422,-6.15491 29.300892,-10.32185 43.920834,-15.66431 10.038599,-3.66833 19.954047,-7.67522 29.36875,-12.76758 4.887218,-2.64346 9.679868,-6.96713 14.816669,-8.91417 M 58.737494,317.5 v 0.26458 l -37.306251,8.83416 -50.006251,7.68229 -18.25625,4.09329 -8.995833,2.40901 c 4.11786,-3.66618 9.370108,-6.588 14.022917,-9.53908 18.519105,-11.74592 37.7031736,-18.77963 59.795834,-18.23829 13.644742,0.33435 27.066921,4.49256 40.745834,4.49404 m 0,0.79375 v 0.26458 c -11.86499,8.07112 -23.406905,17.44858 -36.512501,23.46626 -11.037343,5.06799 -23.06868243,7.71828 -35.189584,8.01529 -8.927556,0.21875 -17.970447,-1.16615 -26.722917,-2.85448 -6.120613,-1.18068 -12.526286,-2.91068 -18.785417,-2.96248 2.279141,-1.87453 6.702006,-2.36144 9.525,-3.175 8.594889,-2.47698 17.401361,-4.08326 26.193751,-5.66854 15.1066846,-2.72375 30.4636448,-3.91733 45.508334,-7.03227 12.291563,-2.54493 23.925704,-6.76212 35.983334,-10.05336 z"
       id="path2" /></g></svg>
