<?xml version="1.0" encoding="UTF-8" standalone="no"?>
<!-- Created with Inkscape (http://www.inkscape.org/) -->

<svg
   width="116.49377mm"
   height="125.01577mm"
   viewBox="0 0 116.49377 125.01577"
   version="1.1"
   id="svg1"
   xml:space="preserve"
   inkscape:export-filename="okos.svg"
   inkscape:export-xdpi="98.770943"
   inkscape:export-ydpi="98.770943"
   xmlns:inkscape="http://www.inkscape.org/namespaces/inkscape"
   xmlns:sodipodi="http://sodipodi.sourceforge.net/DTD/sodipodi-0.dtd"
   xmlns="http://www.w3.org/2000/svg"
   xmlns:svg="http://www.w3.org/2000/svg"><sodipodi:namedview
     id="namedview1"
     pagecolor="#ffffff"
     bordercolor="#000000"
     borderopacity="0.25"
     inkscape:showpageshadow="2"
     inkscape:pageopacity="0.0"
     inkscape:pagecheckerboard="0"
     inkscape:deskcolor="#d1d1d1"
     inkscape:document-units="mm"
     showguides="true"
     showgrid="true"
     inkscape:clip-to-page="false"><inkscape:grid
       id="grid1"
       units="mm"
       originx="-88.818344"
       originy="-149.39667"
       spacingx="0.99999998"
       spacingy="1"
       empcolor="#0099e5"
       empopacity="0.30196078"
       color="#0099e5"
       opacity="0.14901961"
       empspacing="5"
       enabled="true"
       visible="true" /><inkscape:page
       x="0"
       y="0"
       width="116.49377"
       height="125.01577"
       id="page2"
       margin="0"
       bleed="0" /></sodipodi:namedview><defs
     id="defs1" /><g
     inkscape:label="Réteg 1"
     inkscape:groupmode="layer"
     id="layer1"
     transform="translate(-88.818348,-149.39667)"><g
       id="g1"><g
         id="g4"
         transform="matrix(0.83669198,0,0,0.83669198,59.837843,97.666322)"><g
           id="g5"><path
             style="fill:none;stroke:#887a57;stroke-width:1.91735;stroke-linecap:round;stroke-dasharray:none;stroke-opacity:1"
             d="m 104.58044,75.463625 c 1.32092,-0.07813 2.04361,1.311451 2.72628,2.390019 2.27082,3.58775 4.49278,7.207103 6.67604,10.847917 5.22166,8.707641 10.30412,17.591329 13.52437,27.252089 2.15066,6.45196 3.30484,13.05204 0.7229,19.57917 -2.45624,6.20939 -7.78721,10.91772 -13.86388,13.52743 -2.58007,1.10804 -6.17578,1.90242 -8.46666,2.05931 -2.08667,0.1429 -3.75047,0.16544 -6.350009,-0.32298 -6.993388,-1.31397 -13.681303,-6.10395 -17.115445,-12.35335 -2.984798,-5.43171 -3.184754,-11.5132 -1.557479,-17.4625 3.051494,-11.15625 8.959725,-21.80329 14.591891,-31.750002 2.045692,-3.612813 4.228989,-7.284278 6.412272,-10.847917 0.68993,-1.126126 1.37258,-2.840686 2.69972,-2.919186 M 45.045463,171.78025 c 9.984307,-5.68211 21.770902,-11.94793 33.602084,-10.803 9.225729,0.89279 17.39671,5.89227 26.193753,8.30926 4.59178,1.26158 9.34843,1.18733 14.02292,1.7488 1.99366,0.23945 4.43095,0.96749 5.3529,2.86549 2.02552,4.16986 -1.7069,7.22677 -5.61748,7.62432 -8.93583,0.90842 -18.31366,-0.41314 -27.252092,-1.54278 m 33.602092,-3.43959 c 1.07009,-0.0852 1.65648,-0.17172 2.64583,-0.46854 1.26635,-0.3799 2.71359,-1.0874 3.96875,-1.59504 6.3563,-2.57081 12.58854,-5.8261 19.31458,-7.30912 2.59112,-0.57131 6.46887,-0.96518 8.71594,0.79274 1.59669,1.24911 1.51335,3.41096 0.24091,4.87192 -2.13042,2.44607 -5.45046,4.03088 -8.1631,5.7404 -11.41511,7.19389 -24.12466,15.47299 -37.57083,18.22154 -6.46198,1.32092 -13.46748,1.29448 -19.843756,-0.37953 -8.042532,-2.11146 -15.876082,-5.1252 -24.341667,-4.50465 -6.447604,0.47263 -12.528273,4.14187 -17.727084,7.64903 M 87.95696,141.10967 c 2.738186,3.32339 7.892933,6.34109 13.30057,7.13982 0.97966,0.1447 1.93846,0.22118 2.84795,0.22057 0.81258,-5.5e-4 1.66522,-0.0649 2.53734,-0.18586 5.49605,-0.7621 11.76557,-3.77021 13.65694,-7.20311"
             id="path1"
             sodipodi:nodetypes="csssssssssssccsssssccscsssssssccsssc" /></g></g></g></g></svg>
