<?xml version="1.0" encoding="UTF-8" standalone="no"?>
<svg
   version="1.1"
   viewBox="0 0 3986012.2 372344.06"
   id="svg60"
   sodipodi:docname="NÉV_LOGO_4a4728_bfa983_AUTO_v3.svg.2026_05_29_19_07_55.0.svg"
   inkscape:version="1.4.3 (0d15f75, 2025-12-25)"
   inkscape:export-filename="NÉV_LOGO_4a4728_bfa983_WEB_v3.png"
   inkscape:export-xdpi="96"
   inkscape:export-ydpi="96"
   width="3986012.2"
   height="372344.06"
   xmlns:inkscape="http://www.inkscape.org/namespaces/inkscape"
   xmlns:sodipodi="http://sodipodi.sourceforge.net/DTD/sodipodi-0.dtd"
   xmlns="http://www.w3.org/2000/svg"
   xmlns:svg="http://www.w3.org/2000/svg">
  <sodipodi:namedview
     id="namedview60"
     pagecolor="#ffffff"
     bordercolor="#000000"
     borderopacity="0.25"
     inkscape:showpageshadow="2"
     inkscape:pageopacity="0.0"
     inkscape:pagecheckerboard="0"
     inkscape:deskcolor="#d1d1d1"
     showgrid="true"
     inkscape:zoom="5.6568544"
     inkscape:cx="707.72548"
     inkscape:cy="495.59345"
     inkscape:window-width="3840"
     inkscape:window-height="1511"
     inkscape:window-x="-9"
     inkscape:window-y="-9"
     inkscape:window-maximized="1"
     inkscape:current-layer="svg60">
    <inkscape:grid
       id="grid371"
       units="px"
       originx="0"
       originy="0"
       spacingx="1"
       spacingy="0.99999998"
       empcolor="#0099e5"
       empopacity="0.30196078"
       color="#0099e5"
       opacity="0.14902"
       empspacing="5"
       enabled="true"
       visible="true" />
    <inkscape:page
       x="0"
       y="0"
       width="3986012.2"
       height="372344.06"
       id="page2"
       margin="0"
       bleed="0" />
  </sodipodi:namedview>
  <!-- Generator: Adobe Illustrator 30.4.0, SVG Export Plug-In . SVG Version: 2.1.4 Build 226)  -->
  <defs
     id="defs1">
    <style
       id="style1">
      .st0 {
        fill: #bfa983;
      }

      .st1 {
        fill: none;
        stroke: #bf4b00;
        stroke-miterlimit: 10;
        stroke-width: 2.5px;
      }

      .st2 {
        fill: #fff;
      }

      .st3 {
        fill: #4a4728;
      }

      .st4 {
        display: none;
      }
    </style>
    <inkscape:path-effect
       effect="fill_between_many"
       method="bsplinespiro"
       autoreverse="false"
       close="false"
       join="false"
       linkedpaths="#rect40,0,1"
       id="path-effect75"
       is_visible="true"
       lpeversion="0" />
  </defs>
  <g
     id="Réteg_2"
     class="st4">
    <path
       class="st1"
       d="m 246.3,227.6 c -3.1,-17 -5.3,-35.2 -10.8,-51.3 -25.1,39.4 -64.1,48.6 -103,68.3 -38,19.5 -60.5,60.1 -60.9,102.3 -0.5,14.6 1.2,29 5.8,43 2.8,11.1 10.5,20.8 13.1,31.5 -5.7,21.4 -9.6,44.4 -20.6,63.7 0.2,-33.4 -18.9,-61.4 -41.4,-84.6 -0.4,-0.5 -0.9,-1.3 -2.1,-0.5 7.4,14.8 19.3,27.5 26.8,42.2 16,28.5 11.3,60.6 -3,88.3 -3.2,9.7 -6.1,17.1 -3.1,18.1 1.2,0.2 2.9,0 3.2,-1.5 14.4,-50.6 55.6,-88.9 102.9,-110.4 11.2,-5.6 22.4,-11.4 32.3,-19.1 57.3,-43.7 72.8,-121.8 60.9,-189.8 z m -3.6,55.6 C 240.2,343.5 207,401.5 151.9,427.9 125,440.9 100.1,458.1 81,481.3 108,404.5 102.7,354.2 174.3,300.6 130.8,317.8 106,363.5 94.2,406.6 65,361.2 78.5,292.5 122.9,261.3 c 37.9,-28.1 77.9,-30.9 109.9,-69.6 7,29.8 11.1,60.8 9.9,91.5 z"
       id="path41" />
    <path
       class="st1"
       d="m 3.2,397.8 c -3.1,-11.3 -4,-22.5 -2.6,-34 1.1,-2.8 0.4,-18.3 4.5,-16.4 28.5,9.2 52.6,32 58.2,62.2 1.4,8.6 4.2,22.7 0.3,30.2 -1.2,-0.7 -1.4,-2 -1.6,-3.2 C 61,400.1 44.2,366.3 7.8,354.2 -0.6,384.1 11.2,419 40,433 c 2.5,1.5 6.6,3.7 5.4,7.3 C 25.3,434.1 8.7,418.5 3.2,397.9 Z"
       id="path42" />
    <path
       class="st1"
       d="m 802.7,507.5 c 30.5,9.8 36.8,56.6 16,77.7 -18.1,21 -60.7,12.4 -85.6,14.1 v -2.9 c 5.8,0.3 13.3,-0.3 14.3,-6.5 1.2,-6.1 0.3,-57.6 0.6,-65.3 0,-16.1 -2.4,-18 -14.7,-17.4 v -2.9 c 22.2,0 50.4,-3.8 69.5,3.2 v 0 z m -34.7,0.6 c -2.1,0.2 -4.3,0.5 -6.5,0.9 v 72.5 c -0.8,8.2 4.5,14.8 14.9,13.7 40.7,1.6 49.1,-52.4 27.3,-76.5 -7.9,-8.5 -22.2,-12 -35.7,-10.5 v 0 z"
       id="path43" />
    <path
       class="st1"
       d="m 967.9,599.3 h -76.1 v -2.9 c 13.5,0.5 14.4,-4.4 14,-18 -0.6,-8.6 1.4,-60.5 -1.3,-67.1 -1.5,-3.5 -7.6,-4.5 -11.7,-4.5 v -2.9 h 70.8 l 1.6,22.3 h -3 c -1.9,-8.5 -4.7,-13.8 -8.4,-15.8 -9,-3.5 -24.2,-1.9 -34.4,-2.3 v 39 c 13,-0.7 32.1,4.5 30.3,-14.1 h 3 v 32.8 h -3 c 1,-20.3 -16.8,-13.3 -30.3,-14.6 0.4,7.3 -1.1,35.9 1.3,40.8 2.2,4.4 16.3,2.7 21.2,3 15.9,0.9 22.8,-8 28.2,-22.6 h 3 l -5.2,26.8 v 0 z"
       id="path44" />
    <path
       class="st1"
       d="m 1093.4,594 c -12.8,11 -34.2,8.4 -47.1,-1.3 -2.4,1.5 -3.2,3.9 -3.9,7.1 h -3 v -31.5 h 3 c 3.1,23.2 23.8,36.4 42.2,24.2 12.5,-9.9 4.4,-26.2 -9.1,-31.5 -12.2,-6.5 -27.6,-12.1 -33.3,-22.9 -14,-29.7 24,-47.4 45.5,-28.5 2.8,-1 3.7,-4.1 4.2,-6.9 h 2.9 v 29 h -2.9 c -2.1,-16.5 -16.5,-29.1 -32.1,-24.3 -12.5,4.4 -13.8,19.4 -1.7,27.2 10.2,7.7 34.7,14.5 41.1,27.4 5.6,10.1 3.3,25 -5.8,32 z"
       id="path45" />
    <path
       class="st1"
       d="m 1163.7,599.3 v -2.9 c 12.5,0.5 14.5,-2.7 14.4,-18 0,-5.6 0.2,-58.9 -0.1,-62.8 -0.7,-8.9 -6.9,-8.8 -14.3,-8.8 v -2.9 h 42.4 v 2.9 c -13.5,-0.9 -14.8,4.3 -14.4,17.4 0,0 0,60.2 0,60.2 0,1.4 0,2.4 0.1,2.7 0.5,8.9 6.9,9.4 14.3,9.2 v 2.9 h -42.4 v 0 z"
       id="path46" />
    <path
       class="st1"
       d="m 1274.1,523.2 c 14.3,-22.5 45.1,-28.6 66.4,-12 4.2,-0.4 5.6,-3.4 5.9,-7.6 h 2.9 l 1.3,31 h -2.9 c -4.4,-29.5 -43.1,-39.3 -59.2,-14.6 -5.2,8 -7.8,18.1 -7.8,30.5 -2.3,33 28.4,61.2 55.8,38.7 0.7,-0.8 1,-7.2 1,-19.2 0,-12 -0.1,-6.2 -0.4,-7.5 -1.3,-6.7 -6.4,-6.9 -12.8,-6.8 v -3 h 38.8 v 3 c -11.5,-0.6 -12.6,7.7 -12,17.7 0,0 0,19.6 0,19.6 -6.3,2.1 -16.8,8.4 -36.3,8.3 -41.7,-0.2 -64.1,-45.8 -40.6,-78.2 z"
       id="path47" />
    <path
       class="st1"
       d="m 1511.6,507.9 c -7.6,2.5 -7.6,5 -7.8,13.5 0,0 0,79.5 0,79.5 h -2.7 l -65.1,-83 c 0.6,7.4 -1.5,68 1.3,73.3 1.9,3 9.4,5.2 13.8,5 v 2.9 h -34.4 v -2.9 c 10.4,-1 15.8,-3.6 14.4,-15.9 0,0 0,-58.5 0,-58.5 0.2,-8.7 -5.9,-16.3 -16.4,-15.3 v -2.9 h 27.1 l 57.3,73 v -56 c 1.2,-10.9 -5.2,-14.1 -14.8,-14.1 v -2.9 h 33.9 v 2.9 c -1.9,0.1 -4.1,0.5 -6.5,1.2 z"
       id="path48" />
    <path
       class="st1"
       d="m 1157.1,295.7 h -106.3 c 0,0 0,6.4 0,6.4 24.8,1 40.3,3.7 39.8,32.4 0,0 0.6,48.5 -0.2,55.7 0,0.6 -0.3,1.7 -0.5,2.3 -14.4,39.7 -89.1,39.7 -121.5,18.9 -81.8,-44.8 -79.7,-172.1 -6,-223.9 53.6,-40.1 146.7,-15.5 157,55.5 h 6.8 c -1,-17.1 -3.7,-61.5 -4.3,-78 h -5.4 c -2.1,11.7 -6.7,14.4 -17.5,9.9 -126,-58.9 -268.7,47.6 -224.3,176.6 39.9,92.9 168.4,105.8 249.4,54.7 0,0 0,-71.7 0,-71.7 -1.4,-22.8 12.2,-33.1 33.4,-32.3 l -0.2,-6.4 v 0 z"
       id="path49" />
    <path
       class="st1"
       d="m 1936.5,311.5 c 1.9,-45.7 -53.6,-42.4 -71.1,-9.8 -0.3,8.6 -1.4,105.2 0.5,110.5 3.4,9.3 15.5,10.1 25.9,9.6 v 6 h -81 c 0,0 0,-5.8 0,-5.8 22.6,-1.1 24.9,-6.6 25.6,-25.7 0,-25.7 0,-28.6 0.1,-98 0,-18.1 -10.2,-18.6 -25.6,-18.9 l 0.2,-5.1 c 19,-2.6 35.6,-10.4 53.6,-16.2 V 289 c 27,-41.9 101.5,-44.6 100.1,16.4 0.8,8.7 -1.8,98.1 2.2,103.9 3.3,11.2 14.8,11.5 24.3,12.5 v 5.9 c 0,0 -80.7,0 -80.7,0 v -6 c 7.6,-0.7 19.3,-0.3 22.8,-9.1 2.5,-5.4 2.9,-13.5 3,-16.4 0,-28.3 0,-56.6 0,-84.9 v 0 z"
       id="path50" />
    <path
       class="st1"
       d="m 1566.3,428.5 c -56.8,19.7 -103,-42.5 -91.4,-95.5 12.7,-58.5 74,-96.5 121.8,-63.5 -1.3,-8.7 3.5,-76.2 -3.3,-82.1 -4.4,-6.3 -15.9,-5.1 -22.4,-5.6 l -0.2,-5.3 c 19.4,-2.6 36.3,-12 54.8,-17.8 v 230.1 c 0,4.4 0.5,8.1 1.7,11.9 2.7,9 12.4,11.1 22.8,10.8 l -0.2,5.2 c -18.4,1.7 -35.8,8.3 -52.7,15 v -27 c -7.7,7.1 -20.4,21.1 -30.9,23.8 z"
       id="path51" />
    <path
       class="st1"
       d="m 1595,394.2 v 0 c -40.5,52 -97.8,-9.4 -91.7,-61.2 6.1,-51.8 0.4,-2.6 0.5,-3.9 3.5,-31.4 21.1,-64 55.4,-61.7 19.4,1.3 37.8,18.2 37.8,36.1 -0.2,4 1.8,84.8 -2,90.7 z"
       id="path52" />
    <path
       class="st1"
       d="m 827.5,397.7 5.3,4.1 c -13.6,21.6 -39.8,38 -65.4,27.4 -16.5,-6.6 -22.3,-24.1 -22.3,-41.8 0,0 0,-112.7 0,-112.7 h -31.2 c 0,0 0,-6.3 0,-6.3 30.5,-10 46.9,-32.4 54.5,-63.3 l 6.2,-0.2 v 57.4 c 0,0 51.1,0 51.1,0 v 12.4 c 0,0 -51.1,0 -51.1,0 l -0.4,106.6 c -2.1,36.7 33,41.1 53.6,16.4 v 0 z"
       id="path53" />
    <path
       class="st1"
       d="m 1794.7,377.7 -7.3,10.7 v 0 c -47.2,52.8 -113.2,-4.8 -101.7,-65.2 h 111.6 c -2.5,-102 -144.4,-78.2 -141.4,24 -1,89 112.7,121.6 144.2,33.5 l -5.5,-3 z m -103.5,-80.4 c 19.5,-45.2 76.6,-36.5 74.9,14.8 0,0.9 0,1.5 -0.2,2 -1,0 -59,0 -73.7,0 -3.4,-0.1 -5.2,0.2 -5.3,-0.2 0.3,-4.2 3.4,-13.8 4.2,-16.4 v -0.2 z"
       id="path54" />
    <path
       class="st1"
       d="m 622.7,404.5 c 1.3,16.5 17.7,15.9 29.9,17.5 v 5.7 l -87.4,-0.3 v -5.7 c 14.7,-0.3 27.1,-2.9 27.8,-21.3 -0.7,-6.8 2,-110.1 -1.9,-113 -2.4,-7 -14.4,-7.8 -24.4,-7.8 v -5.1 c 16.5,-2.8 32.4,-7.2 47.8,-14.6 2.2,-1 5,-1.6 6.5,-1 v 33 c 7.5,-10.2 16.2,-22.8 27.7,-28.7 20.9,-12.6 49.3,-0.1 40.7,23.6 -4,11.1 -21,11.9 -26.6,1.9 -3.2,-5.1 -8.5,-8.3 -14.8,-7.4 -14.5,2.4 -25,16.9 -26.2,31.2 0,6.3 -0.4,88.7 0.8,92.1 v 0 z"
       id="path55" />
    <path
       class="st1"
       d="M 503.9,395.5 C 497.8,381.6 480,341.6 474.4,328.2 451.3,275.3 425.4,213.9 401.6,161.3 h -0.9 c -21.5,46 -47.5,107.6 -68.7,154 L 296.9,394 c -7.5,16.8 -22.1,28 -42.2,27.5 v 6 l 87.6,0.2 v -6.2 c -24.1,0.5 -39.7,-9.9 -29.3,-32.3 6.6,-15.3 20.6,-47.6 27.2,-62.7 H 437 c 4.9,11.4 21.6,49.7 26.9,61.7 v 0 c 12.2,27.5 -5.6,33 -28.6,33 v 6.2 h 109 v -6 c -18.9,0.4 -34,-9.2 -40.3,-25.9 z M 345.1,315 c 5.8,-13.2 37.5,-84.2 44,-99 8.3,19.5 34.4,79.3 43,99 v 0 z"
       id="path56" />
    <path
       class="st1"
       d="m 1395.3,399.6 c 0.9,21.6 14.3,20.7 29.6,22.6 0,0 0,0 0,0 v 5.8 c 0,0 0,0 0,0 -15.3,0.1 -69.3,0 -84.5,0.3 -15.2,0.3 0,0 0,0 V 422 c 0,0 0,0 0,0 11.6,0.3 24.2,-4 25.1,-14 1.6,-2 0.8,-100.1 1,-105.3 -0.1,-23.4 -5.1,-21.7 -25.9,-22.8 -20.8,-1.1 0,0 0,0 l -0.2,-5.3 c 0,0 0,0 0,0 17,-2.8 33,-7.5 48.7,-15 15.7,-7.5 0,0 0,0 1.5,-0.6 4.2,-0.8 5.3,-0.4 1.1,0.4 0,0 0,0 v 32.7 c 0,0 0,0 0,0 l 14.5,-17.5 c 1.5,-1.8 3.2,-3.5 5.1,-4.9 l 7,-5.4 c 0.2,-0.2 0.4,-0.3 0.7,-0.5 13.9,-8.3 34.6,-7 40.6,5.7 6.4,12.2 -1.6,27.2 -14,26.6 -12.4,-0.6 -8.1,-2.4 -10.8,-5.6 -2.7,-3.2 -7.3,-10 -15.5,-8.9 -15.3,2.1 -26.5,20.5 -26.5,29.3 0,0 -0.2,88.9 -0.2,88.9 z"
       id="path57" />
    <path
       class="st1"
       d="m 1325.8,401.5 c -8.7,14.4 -26.6,17.9 -28.3,-0.1 -0.5,-13.3 -0.1,-78.3 -0.1,-92.9 -0.3,-11.6 -2.2,-24 -9.3,-33.2 -21.6,-25.6 -79.4,-23.8 -102.6,5.4 -1.5,1.9 -2.7,4 -3.5,6.4 -3.1,9.2 -3.4,22.1 4.6,25.2 13.5,5.2 26.1,-4.6 22,-19.8 -1.7,-8.9 2.1,-17.1 10.4,-21.3 15.1,-7.7 38,-4.2 45.8,12.9 5.4,10.9 3.6,28 3.9,39.8 -19.4,6.5 -47.1,15.2 -65.9,23.3 -48.5,17.5 -43.4,87.3 12.5,85.3 v 0 c 21,-1.1 38.5,-13 52.9,-28.1 1.3,40.6 50,31.1 63.3,2.1 l -5.7,-4.8 z m -57.2,-10.9 v 0 c -27.7,46.4 -97.2,14.6 -57.7,-31.5 12.8,-12.5 41.3,-19.8 57.8,-26.1 v 57.6 z"
       id="path58" />
    <path
       class="st1"
       d="M 1474.8,333.2"
       id="path59" />
    <rect
       class="st1"
       x="1566"
       y="547.20001"
       width="375"
       height="4"
       id="rect59" />
    <rect
       class="st1"
       x="253"
       y="547.20001"
       width="431"
       height="4"
       id="rect60" />
    <path
       class="st1"
       d="M 1470,332.2"
       id="path60" />
  </g>
  <g
     id="g1">
    <path
       id="path31"
       class="st3"
       d="m 1625.5996,158.69922 c -18.5,5.8 -35.3988,15.20078 -54.7988,17.80078 l 0.1992,5.30078 c 6.5,0.5 19.5975,-1.20359 24.597,4.63208 5.9794,6.97943 2.8048,60.65529 1.9339,79.24085 -0.062,1.33312 1.2664,2.71914 -0.5445,3.69114 -47.8,-33 -109.386,5.13515 -122.086,63.63515 -11.6,53 34.6004,115.2 91.4004,95.5 10.5,-2.7 23.1984,-16.70078 30.8984,-23.80078 v 27 c 16.9,-6.7 34.3012,-13.3 52.7012,-15 l 0.1992,-5.19922 c -10.4,0.3 -20.0988,-1.80078 -22.7988,-10.80078 -1.2,-3.8 -1.7012,-7.49844 -1.7012,-11.89844 z m -72.4707,108.66016 c 1.9624,-0.11005 3.985,-0.0988 6.0703,0.041 19.4,1.3 37.8008,18.19961 37.8008,36.09961 -0.2,4 1.8,84.79922 -2,90.69922 -40.5,52 -97.7992,-9.39922 -91.6992,-61.19922 5.1356,-43.61105 1.9058,-15.63123 0.8164,-6.4707 3.8949,-28.66983 19.5755,-57.51925 49.0117,-59.16992 z"
       sodipodi:nodetypes="cccssccccccccscscccscss" />
    <path
       class="st0"
       d="m 246.3,227.6 c -3.1,-17 -5.3,-35.2 -10.8,-51.3 -25.1,39.4 -64.1,48.6 -103,68.3 -38,19.5 -60.5,60.1 -60.9,102.3 -0.5,14.6 1.2,29 5.8,43 2.8,11.1 10.5,20.8 13.1,31.5 -5.7,21.4 -9.6,44.4 -20.6,63.7 0.2,-33.4 -18.9,-61.4 -41.4,-84.6 -0.4,-0.5 -0.9,-1.3 -2.1,-0.5 7.4,14.8 19.3,27.5 26.8,42.2 16,28.5 11.3,60.6 -3,88.3 -3.2,9.7 -6.1,17.1 -3.1,18.1 1.2,0.2 2.9,0 3.2,-1.5 14.4,-50.6 55.6,-88.9 102.9,-110.4 11.2,-5.6 22.4,-11.4 32.3,-19.1 57.3,-43.7 72.8,-121.8 60.9,-189.8 z m -3.6,55.6 C 240.2,343.5 207,401.5 151.9,427.9 125,440.9 100.1,458.1 81,481.3 108,404.5 102.7,354.2 174.3,300.6 130.8,317.8 106,363.5 94.2,406.6 65,361.2 78.5,292.5 122.9,261.3 c 37.9,-28.1 77.9,-30.9 109.9,-69.6 7,29.8 11.1,60.8 9.9,91.5 z"
       id="path1" />
    <path
       class="st0"
       d="m 3.2,397.8 c -3.1,-11.3 -4,-22.5 -2.6,-34 1.1,-2.8 0.4,-18.3 4.5,-16.4 28.5,9.2 52.6,32 58.2,62.2 1.4,8.6 4.2,22.7 0.3,30.2 -1.2,-0.7 -1.4,-2 -1.6,-3.2 C 61,400.1 44.2,366.3 7.8,354.2 -0.6,384.1 11.2,419 40,433 c 2.5,1.5 6.6,3.7 5.4,7.3 C 25.3,434.1 8.7,418.5 3.2,397.9 Z"
       id="path2" />
    <path
       class="st0"
       d="m 802.7,507.5 c 30.5,9.8 36.8,56.6 16,77.7 -18.1,21 -60.7,12.4 -85.6,14.1 v -2.9 c 5.8,0.3 13.3,-0.3 14.3,-6.5 1.2,-6.1 0.3,-57.6 0.6,-65.3 0,-16.1 -2.4,-18 -14.7,-17.4 v -2.9 c 22.2,0 50.4,-3.8 69.5,3.2 v 0 z m -34.7,0.6 c -2.1,0.2 -4.3,0.5 -6.5,0.9 v 72.5 c -0.8,8.2 4.5,14.8 14.9,13.7 40.7,1.6 49.1,-52.4 27.3,-76.5 -7.9,-8.5 -22.2,-12 -35.7,-10.5 v 0 z"
       id="path3" />
    <path
       class="st0"
       d="m 967.9,599.3 h -76.1 v -2.9 c 13.5,0.5 14.4,-4.4 14,-18 -0.6,-8.6 1.4,-60.5 -1.3,-67.1 -1.5,-3.5 -7.6,-4.5 -11.7,-4.5 v -2.9 h 70.8 l 1.6,22.3 h -3 c -1.9,-8.5 -4.7,-13.8 -8.4,-15.8 -9,-3.5 -24.2,-1.9 -34.4,-2.3 v 39 c 13,-0.7 32.1,4.5 30.3,-14.1 h 3 v 32.8 h -3 c 1,-20.3 -16.8,-13.3 -30.3,-14.6 0.4,7.3 -1.1,35.9 1.3,40.8 2.2,4.4 16.3,2.7 21.2,3 15.9,0.9 22.8,-8 28.2,-22.6 h 3 l -5.2,26.8 v 0 z"
       id="path4" />
    <path
       class="st0"
       d="m 1093.4,594 c -12.8,11 -34.2,8.4 -47.1,-1.3 -2.4,1.5 -3.2,3.9 -3.9,7.1 h -3 v -31.5 h 3 c 3.1,23.2 23.8,36.4 42.2,24.2 12.5,-9.9 4.4,-26.2 -9.1,-31.5 -12.2,-6.5 -27.6,-12.1 -33.3,-22.9 -14,-29.7 24,-47.4 45.5,-28.5 2.8,-1 3.7,-4.1 4.2,-6.9 h 2.9 v 29 h -2.9 c -2.1,-16.5 -16.5,-29.1 -32.1,-24.3 -12.5,4.4 -13.8,19.4 -1.7,27.2 10.2,7.7 34.7,14.5 41.1,27.4 5.6,10.1 3.3,25 -5.8,32 z"
       id="path5" />
    <path
       class="st0"
       d="m 1163.7,599.3 v -2.9 c 12.5,0.5 14.5,-2.7 14.4,-18 0,-5.6 0.2,-58.9 -0.1,-62.8 -0.7,-8.9 -6.9,-8.8 -14.3,-8.8 v -2.9 h 42.4 v 2.9 c -13.5,-0.9 -14.8,4.3 -14.4,17.4 0,0 0,60.2 0,60.2 0,1.4 0,2.4 0.1,2.7 0.5,8.9 6.9,9.4 14.3,9.2 v 2.9 h -42.4 v 0 z"
       id="path6" />
    <path
       class="st0"
       d="m 1274.1,523.2 c 14.3,-22.5 45.1,-28.6 66.4,-12 4.2,-0.4 5.6,-3.4 5.9,-7.6 h 2.9 l 1.3,31 h -2.9 c -4.4,-29.5 -43.1,-39.3 -59.2,-14.6 -5.2,8 -7.8,18.1 -7.8,30.5 -2.3,33 28.4,61.2 55.8,38.7 0.7,-0.8 1,-7.2 1,-19.2 0,-12 -0.1,-6.2 -0.4,-7.5 -1.3,-6.7 -6.4,-6.9 -12.8,-6.8 v -3 h 38.8 v 3 c -11.5,-0.6 -12.6,7.7 -12,17.7 0,0 0,19.6 0,19.6 -6.3,2.1 -16.8,8.4 -36.3,8.3 -41.7,-0.2 -64.1,-45.8 -40.6,-78.2 z"
       id="path7" />
    <path
       class="st0"
       d="m 1511.6,507.9 c -7.6,2.5 -7.6,5 -7.8,13.5 0,0 0,79.5 0,79.5 h -2.7 l -65.1,-83 c 0.6,7.4 -1.5,68 1.3,73.3 1.9,3 9.4,5.2 13.8,5 v 2.9 h -34.4 v -2.9 c 10.4,-1 15.8,-3.6 14.4,-15.9 0,0 0,-58.5 0,-58.5 0.2,-8.7 -5.9,-16.3 -16.4,-15.3 v -2.9 h 27.1 l 57.3,73 v -56 c 1.2,-10.9 -5.2,-14.1 -14.8,-14.1 v -2.9 h 33.9 v 2.9 c -1.9,0.1 -4.1,0.5 -6.5,1.2 z"
       id="path8" />
    <path
       class="st3"
       d="m 1157.1,295.7 h -106.3 c 0,0 0,6.4 0,6.4 24.8,1 40.3,3.7 39.8,32.4 0,0 0.6,48.5 -0.2,55.7 0,0.6 -0.3,1.7 -0.5,2.3 -14.4,39.7 -89.1,39.7 -121.5,18.9 -81.8,-44.8 -79.7,-172.1 -6,-223.9 53.6,-40.1 146.7,-15.5 157,55.5 h 6.8 c -1,-17.1 -3.7,-61.5 -4.3,-78 h -5.4 c -2.1,11.7 -6.7,14.4 -17.5,9.9 -126,-58.9 -268.7,47.6 -224.3,176.6 39.9,92.9 168.4,105.8 249.4,54.7 0,0 0,-71.7 0,-71.7 -1.4,-22.8 12.2,-33.1 33.4,-32.3 l -0.2,-6.4 v 0 z"
       id="path9" />
    <path
       class="st3"
       d="m 1936.5,311.5 c 1.9,-45.7 -53.6,-42.4 -71.1,-9.8 -0.3,8.6 -1.4,105.2 0.5,110.5 3.4,9.3 15.5,10.1 25.9,9.6 v 6 h -81 c 0,0 0,-5.8 0,-5.8 22.6,-1.1 24.9,-6.6 25.6,-25.7 0,-25.7 0,-28.6 0.1,-98 0,-18.1 -10.2,-18.6 -25.6,-18.9 l 0.2,-5.1 c 19,-2.6 35.6,-10.4 53.6,-16.2 V 289 c 27,-41.9 101.5,-44.6 100.1,16.4 0.8,8.7 -1.8,98.1 2.2,103.9 3.3,11.2 14.8,11.5 24.3,12.5 v 5.9 c 0,0 -80.7,0 -80.7,0 v -6 c 7.6,-0.7 19.3,-0.3 22.8,-9.1 2.5,-5.4 2.9,-13.5 3,-16.4 0,-28.3 0,-56.6 0,-84.9 v 0 z"
       id="path10" />
    <path
       id="path11"
       class="st3"
       d="m 1625.5996,158.69922 c -18.5,5.8 -35.3988,15.20078 -54.7988,17.80078 l 0.1992,5.30078 c 6.5,0.5 21.5691,-1.98593 25.9691,4.31407 0.6668,1.36916 -0.3638,0.50551 0.03,1.75346 0.099,0.31358 0.025,-0.0586 0.013,0.40995 -0.01,0.28794 0,1.39826 0,1.74516 0,2.23519 -0.021,5.221 -0.016,6.90581 0.01,2.69861 0.025,5.3615 0.043,8.36476 0.036,6.35399 -0.026,13.5406 0.046,23.21405 0.048,6.44651 -0.052,14.17154 -0.081,20.25503 -0.031,6.61716 0.022,12.56136 -0.012,16.5671 -0.01,1.29005 0.013,3.26404 0,4.05426 -0.01,0.45948 1.7026,1.05908 -0.2518,-0.17491 -47.8,-33 -109.1345,5.29048 -121.8345,63.79048 -11.6,53 34.6004,115.2 91.4004,95.5 10.5,-2.7 23.1984,-16.70078 30.8984,-23.80078 v 27 c 16.9,-6.7 34.3012,-13.3 52.7012,-15 L 1650.102,411.5 c -10.4,0.3 -20.0988,-1.80078 -22.7988,-10.80078 -1.2,-3.8 -1.7012,-7.49844 -1.7012,-11.89844 z m -72.4707,108.66016 c 1.9624,-0.11005 3.985,-0.0988 6.0703,0.041 19.4,1.3 37.8008,18.19961 37.8008,36.09961 -0.2,4 1.8,84.79922 -2,90.69922 -40.5,52 -97.7992,-9.39922 -91.6992,-61.19922 5.1356,-43.61105 1.9058,-15.63123 0.8164,-6.4707 3.8949,-28.66983 19.5755,-57.51925 49.0117,-59.16992 z"
       sodipodi:nodetypes="ccccsssssssssccccccccscscccscss" />
    <path
       class="st3"
       d="m 827.5,397.7 5.3,4.1 c -13.6,21.6 -39.8,38 -65.4,27.4 -16.5,-6.6 -22.3,-24.1 -22.3,-41.8 0,0 0,-112.7 0,-112.7 h -31.2 c 0,0 0,-6.3 0,-6.3 30.5,-10 46.9,-32.4 54.5,-63.3 l 6.2,-0.2 v 57.4 c 0,0 51.1,0 51.1,0 v 12.4 c 0,0 -51.1,0 -51.1,0 l -0.4,106.6 c -2.1,36.7 33,41.1 53.6,16.4 v 0 z"
       id="path13" />
    <path
       class="st3"
       d="m 1794.7,377.7 -7.3,10.7 v 0 c -47.2,52.8 -113.2,-4.8 -101.7,-65.2 h 111.6 c -2.5,-102 -144.4,-78.2 -141.4,24 -1,89 112.7,121.6 144.2,33.5 l -5.5,-3 z m -103.5,-80.4 c 19.5,-45.2 76.6,-36.5 74.9,14.8 0,0.9 0,1.5 -0.2,2 -1,0 -59,0 -73.7,0 -3.4,-0.1 -5.2,0.2 -5.3,-0.2 0.3,-4.2 3.4,-13.8 4.2,-16.4 v -0.2 z"
       id="path14" />
    <path
       class="st3"
       d="M 503.9,395.5 C 497.8,381.6 480,341.6 474.4,328.2 451.3,275.3 425.4,213.9 401.6,161.3 h -0.9 c -21.5,46 -47.5,107.6 -68.7,154 L 296.9,394 c -7.5,16.8 -22.1,28 -42.2,27.5 v 6 l 87.6,0.2 v -6.2 c -24.1,0.5 -39.7,-9.9 -29.3,-32.3 6.6,-15.3 20.6,-47.6 27.2,-62.7 H 437 c 4.9,11.4 21.6,49.7 26.9,61.7 v 0 c 12.2,27.5 -5.6,33 -28.6,33 v 6.2 h 109 v -6 c -18.9,0.4 -34,-9.2 -40.3,-25.9 z M 345.1,315 c 5.8,-13.2 37.5,-84.2 44,-99 8.3,19.5 34.4,79.3 43,99 v 0 z"
       id="path16" />
    <path
       class="st3"
       d="m 1325.8,401.5 c -8.7,14.4 -26.6,17.9 -28.3,-0.1 -0.5,-13.3 -0.1,-78.3 -0.1,-92.9 -0.3,-11.6 -2.2,-24 -9.3,-33.2 -21.6,-25.6 -79.4,-23.8 -102.6,5.4 -1.5,1.9 -2.7,4 -3.5,6.4 -3.1,9.2 -3.4,22.1 4.6,25.2 13.5,5.2 26.1,-4.6 22,-19.8 -1.7,-8.9 2.1,-17.1 10.4,-21.3 15.1,-7.7 38,-4.2 45.8,12.9 5.4,10.9 3.6,28 3.9,39.8 -19.4,6.5 -47.1,15.2 -65.9,23.3 -48.5,17.5 -43.4,87.3 12.5,85.3 v 0 c 21,-1.1 38.5,-13 52.9,-28.1 1.3,40.6 50,31.1 63.3,2.1 l -5.7,-4.8 z m -57.2,-10.9 v 0 c -27.7,46.4 -97.2,14.6 -57.7,-31.5 12.8,-12.5 41.3,-19.8 57.8,-26.1 v 57.6 z"
       id="path18" />
    <path
       class="st3"
       d="M 1474.8,333.2"
       id="path19" />
    <line
       class="st0"
       x1="684"
       y1="549.20001"
       x2="253"
       y2="549.20001"
       id="line19" />
    <path
       class="st3"
       d="M 1470,332.2"
       id="path20" />
    <path
       class="st0"
       d="m 246.3,227.6 c -3.1,-17 -5.3,-35.2 -10.8,-51.3 -25.1,39.4 -64.1,48.6 -103,68.3 -38,19.5 -60.5,60.1 -60.9,102.3 -0.5,14.6 1.2,29 5.8,43 2.8,11.1 10.5,20.8 13.1,31.5 -5.7,21.4 -9.6,44.4 -20.6,63.7 0.2,-33.4 -18.9,-61.4 -41.4,-84.6 -0.4,-0.5 -0.9,-1.3 -2.1,-0.5 7.4,14.8 19.3,27.5 26.8,42.2 16,28.5 11.3,60.6 -3,88.3 -3.2,9.7 -6.1,17.1 -3.1,18.1 1.2,0.2 2.9,0 3.2,-1.5 14.4,-50.6 55.6,-88.9 102.9,-110.4 11.2,-5.6 22.4,-11.4 32.3,-19.1 57.3,-43.7 72.8,-121.8 60.9,-189.8 z m -3.6,55.6 C 240.2,343.5 207,401.5 151.9,427.9 125,440.9 100.1,458.1 81,481.3 108,404.5 102.7,354.2 174.3,300.6 130.8,317.8 106,363.5 94.2,406.6 65,361.2 78.5,292.5 122.9,261.3 c 37.9,-28.1 77.9,-30.9 109.9,-69.6 7,29.8 11.1,60.8 9.9,91.5 z"
       id="path21" />
    <path
       class="st0"
       d="m 3.2,397.8 c -3.1,-11.3 -4,-22.5 -2.6,-34 1.1,-2.8 0.4,-18.3 4.5,-16.4 28.5,9.2 52.6,32 58.2,62.2 1.4,8.6 4.2,22.7 0.3,30.2 -1.2,-0.7 -1.4,-2 -1.6,-3.2 C 61,400.1 44.2,366.3 7.8,354.2 -0.6,384.1 11.2,419 40,433 c 2.5,1.5 6.6,3.7 5.4,7.3 C 25.3,434.1 8.7,418.5 3.2,397.9 Z"
       id="path22" />
    <path
       class="st0"
       d="m 802.7,507.5 c 30.5,9.8 36.8,56.6 16,77.7 -18.1,21 -60.7,12.4 -85.6,14.1 v -2.9 c 5.8,0.3 13.3,-0.3 14.3,-6.5 1.2,-6.1 0.3,-57.6 0.6,-65.3 0,-16.1 -2.4,-18 -14.7,-17.4 v -2.9 c 22.2,0 50.4,-3.8 69.5,3.2 v 0 z m -34.7,0.6 c -2.1,0.2 -4.3,0.5 -6.5,0.9 v 72.5 c -0.8,8.2 4.5,14.8 14.9,13.7 40.7,1.6 49.1,-52.4 27.3,-76.5 -7.9,-8.5 -22.2,-12 -35.7,-10.5 v 0 z"
       id="path23" />
    <path
       class="st0"
       d="m 967.9,599.3 h -76.1 v -2.9 c 13.5,0.5 14.4,-4.4 14,-18 -0.6,-8.6 1.4,-60.5 -1.3,-67.1 -1.5,-3.5 -7.6,-4.5 -11.7,-4.5 v -2.9 h 70.8 l 1.6,22.3 h -3 c -1.9,-8.5 -4.7,-13.8 -8.4,-15.8 -9,-3.5 -24.2,-1.9 -34.4,-2.3 v 39 c 13,-0.7 32.1,4.5 30.3,-14.1 h 3 v 32.8 h -3 c 1,-20.3 -16.8,-13.3 -30.3,-14.6 0.4,7.3 -1.1,35.9 1.3,40.8 2.2,4.4 16.3,2.7 21.2,3 15.9,0.9 22.8,-8 28.2,-22.6 h 3 l -5.2,26.8 v 0 z"
       id="path24" />
    <path
       class="st0"
       d="m 1093.4,594 c -12.8,11 -34.2,8.4 -47.1,-1.3 -2.4,1.5 -3.2,3.9 -3.9,7.1 h -3 v -31.5 h 3 c 3.1,23.2 23.8,36.4 42.2,24.2 12.5,-9.9 4.4,-26.2 -9.1,-31.5 -12.2,-6.5 -27.6,-12.1 -33.3,-22.9 -14,-29.7 24,-47.4 45.5,-28.5 2.8,-1 3.7,-4.1 4.2,-6.9 h 2.9 v 29 h -2.9 c -2.1,-16.5 -16.5,-29.1 -32.1,-24.3 -12.5,4.4 -13.8,19.4 -1.7,27.2 10.2,7.7 34.7,14.5 41.1,27.4 5.6,10.1 3.3,25 -5.8,32 z"
       id="path25" />
    <path
       class="st0"
       d="m 1163.7,599.3 v -2.9 c 12.5,0.5 14.5,-2.7 14.4,-18 0,-5.6 0.2,-58.9 -0.1,-62.8 -0.7,-8.9 -6.9,-8.8 -14.3,-8.8 v -2.9 h 42.4 v 2.9 c -13.5,-0.9 -14.8,4.3 -14.4,17.4 0,0 0,60.2 0,60.2 0,1.4 0,2.4 0.1,2.7 0.5,8.9 6.9,9.4 14.3,9.2 v 2.9 h -42.4 v 0 z"
       id="path26" />
    <path
       class="st0"
       d="m 1274.1,523.2 c 14.3,-22.5 45.1,-28.6 66.4,-12 4.2,-0.4 5.6,-3.4 5.9,-7.6 h 2.9 l 1.3,31 h -2.9 c -4.4,-29.5 -43.1,-39.3 -59.2,-14.6 -5.2,8 -7.8,18.1 -7.8,30.5 -2.3,33 28.4,61.2 55.8,38.7 0.7,-0.8 1,-7.2 1,-19.2 0,-12 -0.1,-6.2 -0.4,-7.5 -1.3,-6.7 -6.4,-6.9 -12.8,-6.8 v -3 h 38.8 v 3 c -11.5,-0.6 -12.6,7.7 -12,17.7 0,0 0,19.6 0,19.6 -6.3,2.1 -16.8,8.4 -36.3,8.3 -41.7,-0.2 -64.1,-45.8 -40.6,-78.2 z"
       id="path27" />
    <path
       class="st0"
       d="m 1511.6,507.9 c -7.6,2.5 -7.6,5 -7.8,13.5 0,0 0,79.5 0,79.5 h -2.7 l -65.1,-83 c 0.6,7.4 -1.5,68 1.3,73.3 1.9,3 9.4,5.2 13.8,5 v 2.9 h -34.4 v -2.9 c 10.4,-1 15.8,-3.6 14.4,-15.9 0,0 0,-58.5 0,-58.5 0.2,-8.7 -5.9,-16.3 -16.4,-15.3 v -2.9 h 27.1 l 57.3,73 v -56 c 1.2,-10.9 -5.2,-14.1 -14.8,-14.1 v -2.9 h 33.9 v 2.9 c -1.9,0.1 -4.1,0.5 -6.5,1.2 z"
       id="path28" />
    <path
       class="st3"
       d="m 1157.1,295.7 h -106.3 c 0,0 0,6.4 0,6.4 24.8,1 40.3,3.7 39.8,32.4 0,0 0.6,48.5 -0.2,55.7 0,0.6 -0.3,1.7 -0.5,2.3 -14.4,39.7 -89.1,39.7 -121.5,18.9 -81.8,-44.8 -79.7,-172.1 -6,-223.9 53.6,-40.1 146.7,-15.5 157,55.5 h 6.8 c -1,-17.1 -3.7,-61.5 -4.3,-78 h -5.4 c -2.1,11.7 -6.7,14.4 -17.5,9.9 -126,-58.9 -268.7,47.6 -224.3,176.6 39.9,92.9 168.4,105.8 249.4,54.7 0,0 0,-71.7 0,-71.7 -1.4,-22.8 12.2,-33.1 33.4,-32.3 l -0.2,-6.4 v 0 z"
       id="path29" />
    <path
       class="st3"
       d="m 1936.4164,310.48458 c 1.9,-45.7 -53.5164,-41.38458 -71.0164,-8.78458 -0.3,8.6 -1.4,105.2 0.5,110.5 3.4,9.3 15.5,10.1 25.9,9.6 v 6 h -81 V 422 c 22.6,-1.1 24.9,-6.6 25.6,-25.7 0,-25.7 0,-28.6 0.1,-98 0,-18.1 -10.2,-18.6 -25.6,-18.9 l 0.2,-5.1 c 19,-2.6 35.6,-10.4 53.6,-16.2 V 289 c 27,-41.9 101.5,-44.6 100.1,16.4 0.8,8.7 -1.8,98.1 2.2,103.9 3.3,11.2 14.8,11.5 24.3,12.5 v 5.9 h -80.7 v -6 c 7.6,-0.7 19.3,-0.3 22.8,-9.1 2.5,-5.4 2.9,-13.5 3,-16.4 v -84.9 0 z"
       id="path30"
       sodipodi:nodetypes="cccccccccccccccccccccccc" />
    <path
       class="st3"
       d="m 827.5,397.7 5.3,4.1 c -13.6,21.6 -39.8,38 -65.4,27.4 -16.5,-6.6 -22.3,-24.1 -22.3,-41.8 V 274.7 h -31.2 v -6.3 c 30.5,-10 46.9,-32.4 54.5,-63.3 l 6.2,-0.2 v 57.4 h 51.1 v 12.4 h -51.1 l -0.4,106.6 c -1.62696,36.76758 33,41.1 53.6,16.4 v 0 z"
       id="path33"
       sodipodi:nodetypes="cccsccccccccccscc" />
    <path
       class="st3"
       d="m 1794.7,377.7 -7.3,10.7 v 0 c -47.2,52.8 -113.2,-4.8 -101.7,-65.2 h 111.6 c -2.5,-102 -144.4,-78.2 -141.4,24 -1,89 112.7,121.6 144.2,33.5 l -5.5,-3 z m -103.5,-80.4 c 19.5,-45.2 76.6,-36.5 74.9,14.8 0,0.9 0,1.5 -0.2,2 -1,0 -59,0 -73.7,0 -3.4,-0.1 -5.2,0.2 -5.3,-0.2 0.3,-4.2 3.4,-13.8 4.2,-16.4 v -0.2 z"
       id="path34" />
    <path
       class="st3"
       d="M 503.9,395.5 C 497.8,381.6 480,341.6 474.4,328.2 451.3,275.3 425.4,213.9 401.6,161.3 h -0.9 c -21.5,46 -47.5,107.6 -68.7,154 L 296.9,394 c -7.5,16.8 -22.1,28 -42.2,27.5 v 6 l 87.6,0.2 v -6.2 c -24.1,0.5 -39.7,-9.9 -29.3,-32.3 6.6,-15.3 20.6,-47.6 27.2,-62.7 H 437 c 4.9,11.4 21.6,49.7 26.9,61.7 v 0 c 12.2,27.5 -5.6,33 -28.6,33 v 6.2 h 109 v -6 c -18.9,0.4 -34,-9.2 -40.3,-25.9 z M 345.1,315 c 5.8,-13.2 37.5,-84.2 44,-99 8.3,19.5 34.4,79.3 43,99 v 0 z"
       id="path36" />
    <path
       class="st3"
       d="m 1325.8,401.5 c -8.7,14.4 -26.6,17.9 -28.3,-0.1 -0.5,-13.3 -0.1,-78.3 -0.1,-92.9 -0.3,-11.6 -2.2,-24 -9.3,-33.2 -21.6,-25.6 -79.4,-23.8 -102.6,5.4 -1.5,1.9 -2.7,4 -3.5,6.4 -3.1,9.2 -3.4,22.1 4.6,25.2 13.5,5.2 26.1,-4.6 22,-19.8 -1.7,-8.9 2.1,-17.1 10.4,-21.3 15.1,-7.7 38,-4.2 45.8,12.9 5.4,10.9 3.6,28 3.9,39.8 -19.4,6.5 -47.1,15.2 -65.9,23.3 -48.5,17.5 -43.4,87.3 12.5,85.3 v 0 c 21,-1.1 38.5,-13 52.9,-28.1 1.3,40.6 50,31.1 63.3,2.1 l -5.7,-4.8 z m -57.2,-10.9 v 0 c -27.7,46.4 -97.2,14.6 -57.7,-31.5 12.8,-12.5 41.3,-19.8 57.8,-26.1 v 57.6 z"
       id="path38" />
    <path
       class="st3"
       d="M 1474.8,333.2"
       id="path39" />
    <line
       class="st0"
       x1="684"
       y1="549.20001"
       x2="253"
       y2="549.20001"
       id="line39" />
    <path
       inkscape:original-d="M 0,0"
       inkscape:path-effect="#path-effect75"
       d="M 0,0"
       id="path75"
       style="fill:#bfa983" />
    <path
       class="st3"
       d="M 1470,332.2"
       id="path40" />
    <path
       class="st3"
       d="m 1395.8168,401.50427 c 0.4971,15.88193 19.4512,19.93234 31.6512,21.53234 v 5.7 l -87.4,-0.3 v -5.7 c 14.7,-0.3 26.9011,-2.94419 27.7558,-21.36629 0.059,-3.63943 0.2435,-33.22338 0.1996,-61.43281 -0.028,-18.1334 -0.058,-35.61847 -0.1586,-44.84264 -0.041,-3.79339 -1.3568,-6.25671 -1.8968,-6.65826 -2.4,-7 -14.4,-7.8 -24.4,-7.8 v -5.1 c 16.5,-2.8 32.4,-7.2 47.8,-14.6 2.2,-1 5,-1.6 6.5,-1 v 33 c 7.5,-10.2 16.2,-22.8 27.7,-28.7 20.9,-12.6 49.3,-0.1 40.7,23.6 -4,11.1 -21,11.9 -26.6,1.9 -3.2,-5.1 -8.5,-8.3 -14.8,-7.4 -14.5,2.4 -25.8437,16.8375 -27.0437,31.1375 -0.042,25.51018 -0.118,5.19565 -0.01,88.03016 z"
       id="path35-4"
       style="fill:#4a4728"
       sodipodi:nodetypes="ccccccsscccccccccccc" />
    <path
       class="st3"
       d="m 616.23929,400.48325 c 0.4971,15.88193 19.4512,19.93234 31.6512,21.53234 v 5.7 l -87.4,-0.3 v -5.7 c 14.7,-0.3 26.9011,-2.94419 27.7558,-21.36629 0.059,-3.63943 0.2435,-33.22338 0.1996,-61.43281 -0.028,-18.1334 -0.058,-35.61847 -0.1586,-44.84264 -0.041,-3.79339 -1.3568,-6.25671 -1.8968,-6.65826 -2.4,-7 -14.4,-7.8 -24.4,-7.8 v -5.1 c 16.5,-2.8 32.4,-7.2 47.8,-14.6 2.2,-1 5,-1.6 6.5,-1 v 33 c 7.5,-10.2 16.2,-22.8 27.7,-28.7 20.9,-12.6 49.3,-0.1 40.7,23.6 -4,11.1 -21,11.9 -26.6,1.9 -3.2,-5.1 -8.5,-8.3 -14.8,-7.4 -14.5,2.4 -25.8437,16.8375 -27.0437,31.1375 -0.042,25.51018 -0.118,5.19565 -0.01,88.03016 z"
       id="path35-4-2"
       style="fill:#4a4728"
       sodipodi:nodetypes="ccccccsscccccccccccc" />
    <path
       class="cls-1"
       d="m 685.01383,549.48268 c -138.46,2.7 -279.06,2.64 -417.53,0.3 0,0 -13.47,-0.3 -13.47,-0.3 0,0 13.47,-0.3 13.47,-0.3 138.47,-2.33 279.07,-2.4 417.53,0.3 z"
       id="path20-9"
       style="fill:#bfa983" />
    <path
       class="cls-1"
       d="m 1565.5,549.29107 c 120.46,-2.7 242.81,-2.64 363.28,-0.3 0,0 11.72,0.3 11.72,0.3 l -11.72,0.3 c -120.47,2.33 -242.82,2.4 -363.28,-0.3 z"
       id="path19-8"
       style="fill:#bfa983" />
  </g>
</svg>
